<svg width="100" height="100" viewBox="0 0 100 100" fill="none" xmlns="http://www.w3.org/2000/svg">
<mask id="mask0_711_1070" style="mask-type:luminance" maskUnits="userSpaceOnUse" x="16" y="16" width="68" height="68">
<path d="M83.3333 16.6667H16.6667V83.3334H83.3333V16.6667Z" fill="white" style="fill:white;fill-opacity:1;"/>
</mask>
<g mask="url(#mask0_711_1070)">
<path d="M50.0006 82.8051C68.118 82.8051 82.8052 68.1179 82.8052 50.0004C82.8052 31.8829 68.118 17.1958 50.0006 17.1958C31.8831 17.1958 17.1959 31.8829 17.1959 50.0004C17.1959 68.1179 31.8831 82.8051 50.0006 82.8051Z" fill="#3F3CCD" stroke="#161658" style="fill:#3F3CCD;fill:color(display-p3 0.2470 0.2357 0.8028);fill-opacity:1;stroke:#161658;stroke:color(display-p3 0.0853 0.0853 0.3452);stroke-opacity:1;" stroke-width="0.713427" stroke-miterlimit="10"/>
<mask id="mask1_711_1070" style="mask-type:luminance" maskUnits="userSpaceOnUse" x="17" y="17" width="66" height="66">
<path d="M50.0006 82.8051C68.118 82.8051 82.8052 68.1179 82.8052 50.0004C82.8052 31.8829 68.118 17.1958 50.0006 17.1958C31.8831 17.1958 17.1959 31.8829 17.1959 50.0004C17.1959 68.1179 31.8831 82.8051 50.0006 82.8051Z" fill="white" style="fill:white;fill-opacity:1;"/>
</mask>
<g mask="url(#mask1_711_1070)">
<path d="M-18.8308 -8.32224C-18.8308 -8.32224 -29.8433 9.21164 -15.904 23.9828C-1.96488 38.754 -4.57081 53.8935 -4.57081 53.8935C-4.57081 53.8935 4.66125 55.5268 6.37711 49.9708C6.37711 49.9708 12.1374 60.8774 20.8138 54.0628C20.8138 54.0628 27.7511 68.2541 43.7396 59.4379C59.728 50.6218 67.3681 63.3257 67.3681 63.3257C67.3681 63.3257 71.1554 59.1584 71.329 54.9436C71.329 54.9436 98.0103 75.0749 103.772 49.6035L121.247 12.6136L-4.32954 -46.7156C-4.32954 -46.7156 -35.3517 -23.4035 -18.8308 -8.32224Z" fill="#161658" style="fill:#161658;fill:color(display-p3 0.0853 0.0853 0.3452);fill-opacity:1;"/>
</g>
<path d="M53.1232 75.4031C52.9994 75.2506 52.9316 75.0601 52.9316 74.8644V73.4481C52.9316 72.4425 52.4574 71.8667 51.6202 71.8667C50.5045 71.8667 50.2886 72.4742 49.9912 72.9919C49.9764 73.0173 49.9446 73.0257 49.9192 73.012L49.8568 72.9792C49.8302 72.9654 49.8207 72.9316 49.8355 72.9051L49.9203 72.7569C49.9742 72.6648 50.0028 72.5611 50.0028 72.4541V72.2404C50.0028 72.1028 49.8906 71.9905 49.753 71.9905H48.5378C48.3548 71.9905 48.2562 72.2054 48.3759 72.3441L48.5526 72.5505C48.7316 72.7579 48.8289 73.0226 48.8289 73.2968V74.7669C48.8289 74.93 48.794 75.0908 48.7263 75.24L48.5855 75.5502C48.5209 75.6921 48.6246 75.8529 48.7803 75.8529H50.2982C50.4791 75.8529 50.5786 75.6423 50.4632 75.5026L50.3405 75.3534C50.2155 75.2009 50.1467 75.0093 50.1467 74.8114V73.9995C50.1467 73.7159 50.2144 73.4354 50.3564 73.1898C50.5288 72.8923 50.7533 72.7399 51.0359 72.7399C51.4148 72.7399 51.6191 73.0099 51.6191 73.4978V74.8156C51.6191 74.9744 51.5863 75.1321 51.5217 75.2782L51.401 75.5513C51.3386 75.6932 51.4424 75.8519 51.5969 75.8519H53.0375C53.2174 75.8519 53.3169 75.6423 53.2037 75.5026L53.1222 75.402L53.1232 75.4031Z" fill="#161658" style="fill:#161658;fill:color(display-p3 0.0853 0.0853 0.3452);fill-opacity:1;"/>
<path d="M55.8286 75.2877C55.7799 75.2972 55.7323 75.3036 55.691 75.3046C55.2993 75.3046 55.111 75.058 55.111 74.551V72.5356H55.8244C55.9069 72.5356 55.9736 72.4689 55.9736 72.3863V72.1419C55.9736 72.0592 55.9069 71.9926 55.8244 71.9926H54.9119C54.8865 71.9926 54.8653 71.9714 54.8653 71.946V71.8772C54.8653 71.8518 54.8855 71.8307 54.9109 71.8307H55.0041C55.0633 71.8307 55.111 71.783 55.111 71.7238V71.1902C55.111 71.0886 55.0284 71.0061 54.9267 71.0061H54.4017C54.3065 71.0061 54.2219 71.0685 54.1933 71.1595C54.1329 71.3596 53.9868 71.9915 53.5126 71.9915H53.3719C53.2893 71.9915 53.2226 72.0582 53.2226 72.1408V72.3853C53.2226 72.4678 53.2893 72.5346 53.3719 72.5346H53.8069V74.6007C53.8069 75.4411 54.2346 75.9047 55.0094 75.9047C55.3957 75.9047 55.7471 75.764 55.9598 75.5089C56.0424 75.4094 55.9567 75.2612 55.8297 75.2856L55.8286 75.2877Z" fill="#161658" style="fill:#161658;fill:color(display-p3 0.0853 0.0853 0.3452);fill-opacity:1;"/>
<path d="M48.2095 75.1362C47.9788 75.1774 47.8221 74.9965 47.8221 74.7128V73.3453C47.8221 72.3704 47.204 71.8464 46.0037 71.8464C44.9282 71.8464 44.1947 72.2592 44.1926 72.8837C44.1926 72.996 44.2339 73.106 44.2963 73.2118C44.3959 73.3643 44.5758 73.467 44.7822 73.467C45.0954 73.467 45.3506 73.2298 45.3506 72.9388C45.3506 72.6392 45.0965 72.4878 45.0203 72.4592C45.0753 72.4127 45.3104 72.2317 45.6576 72.2317C46.21 72.2317 46.5064 72.6509 46.5064 73.3029V73.5622C46.0915 73.5622 45.6269 73.6035 45.2998 73.6839C44.4996 73.8586 44.0772 74.3148 44.0772 74.8822C44.0772 75.5225 44.5863 75.9216 45.394 75.9216C45.954 75.9216 46.4197 75.7258 46.6377 75.3977C46.7753 75.674 47.0812 75.8486 47.4739 75.8486C47.982 75.8486 48.2487 75.5828 48.3324 75.2686C48.3546 75.1785 48.2858 75.1224 48.2095 75.1372V75.1362ZM46.5054 74.8292C46.462 75.1341 46.2513 75.3162 45.9455 75.3162C45.611 75.3162 45.3855 75.0907 45.3855 74.7339C45.3855 74.4577 45.5093 74.2164 45.7782 74.1C45.9603 74.0195 46.2429 73.9761 46.5054 73.9687V74.8292Z" fill="#161658" style="fill:#161658;fill:color(display-p3 0.0853 0.0853 0.3452);fill-opacity:1;"/>
<path d="M60.3705 75.1362C60.1399 75.1774 59.9831 74.9965 59.9831 74.7128V73.3453C59.9831 72.3704 59.365 71.8464 58.1647 71.8464C57.0893 71.8464 56.3557 72.2592 56.3536 72.8837C56.3536 72.996 56.3949 73.106 56.4573 73.2118C56.5569 73.3643 56.7368 73.467 56.9432 73.467C57.2565 73.467 57.5116 73.2298 57.5116 72.9388C57.5116 72.6392 57.2575 72.4878 57.1813 72.4592C57.2364 72.4127 57.4714 72.2317 57.8186 72.2317C58.3711 72.2317 58.6675 72.6509 58.6675 73.3029V73.5622C58.2526 73.5622 57.7879 73.6035 57.4608 73.6839C56.6606 73.8586 56.2383 74.3148 56.2383 74.8822C56.2383 75.5225 56.7474 75.9216 57.555 75.9216C58.115 75.9216 58.5807 75.7258 58.7987 75.3977C58.9364 75.674 59.2422 75.8486 59.6349 75.8486C60.143 75.8486 60.4097 75.5828 60.4934 75.2686C60.5156 75.1785 60.4468 75.1224 60.3705 75.1372V75.1362ZM58.6664 74.8292C58.623 75.1341 58.4123 75.3162 58.1065 75.3162C57.772 75.3162 57.5465 75.0907 57.5465 74.7339C57.5465 74.4577 57.6703 74.2164 57.9392 74.1C58.1213 74.0195 58.4039 73.9761 58.6664 73.9687V74.8292Z" fill="#161658" style="fill:#161658;fill:color(display-p3 0.0853 0.0853 0.3452);fill-opacity:1;"/>
<path d="M44.2826 70.7044H43.6232C43.4813 70.7044 43.3956 70.8621 43.4739 70.9807L43.5872 71.1521C43.6835 71.2992 43.7026 71.4835 43.638 71.6464L42.4547 74.624C42.4007 74.7669 42.3445 74.8654 42.3202 74.8897C42.3064 74.9024 42.2842 74.9067 42.2672 74.894L42.2048 74.8442C42.1847 74.8293 42.1858 74.8081 42.2048 74.787C42.2397 74.7404 42.2609 74.6854 42.2736 74.6346C42.2884 74.5743 42.2831 74.5097 42.2609 74.4514L41.2586 71.8021C41.1918 71.6274 41.195 71.4337 41.266 71.2611L41.3729 70.9998C41.43 70.8589 41.3274 70.7044 41.1749 70.7044H39.5596C39.3416 70.7044 39.2283 70.9638 39.3766 71.1236L39.4792 71.2347C39.6677 71.4401 39.8169 71.6771 39.9195 71.9365L41.3591 75.6973C41.3972 75.7926 41.4893 75.855 41.5908 75.855H42.388C42.4906 75.855 42.5827 75.7926 42.6197 75.6973L44.4838 70.9966C44.5398 70.8557 44.4361 70.7034 44.2847 70.7034L44.2826 70.7044Z" fill="#161658" style="fill:#161658;fill:color(display-p3 0.0853 0.0853 0.3452);fill-opacity:1;"/>
<path d="M22.2077 47.1318C23.1053 32.7025 35.5309 21.4063 49.92 21.4296C58.6948 21.3672 67.2125 25.6128 72.4361 32.6634C73.4692 34.0531 74.3721 35.535 75.1289 37.0857C76.632 40.1902 77.5507 43.5679 77.7751 46.9762C77.7815 47.372 77.2268 47.4515 77.1432 47.044C75.4761 35.3784 66.426 25.7832 54.7848 23.7583C43.2357 21.6265 31.4304 27.4302 25.9198 37.797C24.348 40.6972 23.3181 43.8961 22.8396 47.1974C22.8142 47.371 22.6533 47.4917 22.4798 47.4663C22.3157 47.443 22.1982 47.2948 22.2077 47.1329V47.1318Z" fill="#3F3CCD" style="fill:#3F3CCD;fill:color(display-p3 0.2470 0.2357 0.8028);fill-opacity:1;"/>
<path d="M34.0516 47.367L35.3241 46.7535C35.9944 47.1398 36.9033 47.3784 37.7101 47.3784C39.3462 47.3784 40.4482 46.4126 40.4482 44.9924C40.4482 43.7995 39.653 43.0154 37.8009 42.3452L36.608 41.9134C35.5627 41.5043 35.1537 41.0726 35.1537 40.459C35.1537 39.8456 35.574 39.4592 36.2671 39.4592C36.9488 39.4592 37.7668 39.8569 38.7667 40.6977L39.7438 41.5271V39.0503L38.4599 39.6524C37.7555 39.1297 36.9374 38.8457 36.1535 38.8457C34.7901 38.8457 33.8244 39.7319 33.8244 40.9931C33.8244 42.1406 34.6196 43.0041 36.199 43.5836L37.5169 44.0494C38.6871 44.5039 39.0961 44.9015 39.0961 45.5833C39.0961 46.3218 38.6077 46.7421 37.7555 46.7421C36.9716 46.7421 36.0853 46.3899 35.165 45.7082L34.0516 44.822V47.367ZM41.3658 43.1291C41.3658 45.7764 42.82 47.3784 45.1947 47.3784C47.592 47.3784 49.0577 45.7764 49.0577 43.1291C49.0577 40.459 47.592 38.8457 45.1947 38.8457C42.8656 38.8457 41.3658 40.5159 41.3658 43.1291ZM47.2966 43.1063C47.2966 45.5378 46.5808 46.7762 45.1947 46.7762C43.8313 46.7762 43.1268 45.5605 43.1268 43.1063C43.1268 40.6636 43.8426 39.4479 45.1947 39.4479C46.5581 39.4479 47.2966 40.6749 47.2966 43.1063ZM56.2438 45.3787C55.7211 46.3104 54.9599 46.7989 54.085 46.7989C52.6535 46.7989 51.8922 45.5491 51.8922 43.1178C51.8922 40.7317 52.6194 39.4252 53.96 39.4252C54.7213 39.4252 55.3917 39.8682 55.9143 40.7432L56.5505 41.7998V38.9594L55.7666 39.323C55.3121 39.0162 54.6077 38.8457 53.8806 38.8457C51.6309 38.8457 50.1312 40.5499 50.1312 43.2541C50.1312 45.8673 51.506 47.3784 53.926 47.3784C54.8576 47.3784 55.8688 47.1511 56.721 46.7421V44.5493L56.2438 45.3787ZM66.3843 47.2534V44.4812L65.1231 45.7764H62.6917L63.4302 45.106C65.5094 43.5495 66.282 42.4815 66.282 41.2316C66.282 39.7547 65.1685 38.8457 63.4188 38.8457C61.5896 38.8457 60.3057 39.8456 60.3057 41.209C60.3057 41.8111 60.5784 42.1406 61.0442 42.1406C61.5214 42.1406 61.7486 41.8225 61.76 41.1067C61.7827 40.0728 62.2713 39.4479 63.1575 39.4479C64.0323 39.4479 64.5323 40.0841 64.5323 41.2771C64.5323 42.6633 63.9301 43.8449 62.6349 45.0379L60.2375 47.2534H66.3843Z" fill="#3F3CCD" style="fill:#3F3CCD;fill:color(display-p3 0.2470 0.2357 0.8028);fill-opacity:1;"/>
<path d="M34.6605 68.9541H35.1856V67.4125H35.9027C37.0546 67.4125 37.4781 66.8761 37.4781 66.2041C37.4781 65.5322 37.0546 65.0015 35.9139 65.0015H34.6605V68.9541ZM35.1856 66.9834V65.4419H35.9083C36.6649 65.4419 36.9247 65.7694 36.9247 66.2154C36.9247 66.6615 36.6649 66.9834 35.9083 66.9834H35.1856ZM39.3218 69.0331C40.2647 69.0331 40.8294 68.4006 40.8294 67.4746C40.8294 66.5429 40.2647 65.9106 39.3218 65.9106C38.3732 65.9106 37.8085 66.5429 37.8085 67.4746C37.8085 68.4006 38.3732 69.0331 39.3218 69.0331ZM39.3218 68.6208C38.7176 68.6208 38.328 68.22 38.328 67.4746C38.328 66.7293 38.7176 66.3227 39.3218 66.3227C39.926 66.3227 40.3099 66.7293 40.3099 67.4746C40.3099 68.22 39.926 68.6208 39.3218 68.6208ZM45.003 65.9896L44.3028 68.4006L43.6026 65.9896H43.0889L42.3886 68.3724L41.6941 65.9896H41.1577L42.095 68.9541H42.6258L43.3147 66.5937L44.0149 68.9541H44.54L45.4829 65.9896H45.003ZM47.2214 65.9106C46.3801 65.9106 45.8098 66.5034 45.8098 67.4577C45.8098 68.3837 46.3405 69.0331 47.2553 69.0331C48.0175 69.0331 48.4637 68.5756 48.571 68.0223L48.1079 67.9433C47.995 68.4063 47.69 68.6208 47.2553 68.6208C46.6003 68.6208 46.318 68.1409 46.3066 67.565H48.5935C48.65 66.5881 48.1248 65.9106 47.2214 65.9106ZM46.3066 67.1923C46.3349 66.7801 46.6228 66.317 47.2214 66.317C47.8312 66.317 48.0854 66.797 48.0854 67.1923H46.3066ZM49.2882 68.9541H49.7851V67.3334C49.7851 66.6164 50.1069 66.3566 50.5756 66.3566C50.6942 66.3566 50.8128 66.3735 50.937 66.4074V65.967C50.8466 65.9331 50.7507 65.9106 50.6208 65.9106C50.2594 65.9106 49.9545 66.0856 49.7851 66.4808V65.9896H49.2882V68.9541ZM52.5812 65.9106C51.7399 65.9106 51.1696 66.5034 51.1696 67.4577C51.1696 68.3837 51.7004 69.0331 52.6151 69.0331C53.3774 69.0331 53.8235 68.5756 53.9308 68.0223L53.4677 67.9433C53.3548 68.4063 53.0499 68.6208 52.6151 68.6208C51.9601 68.6208 51.6777 68.1409 51.6665 67.565H53.9533C54.0098 66.5881 53.4846 65.9106 52.5812 65.9106ZM51.6665 67.1923C51.6947 66.7801 51.9827 66.317 52.5812 66.317C53.1911 66.317 53.4451 66.797 53.4451 67.1923H51.6665ZM56.7937 65.0015V66.5034C56.6356 66.1364 56.2799 65.9106 55.8 65.9106C55.0151 65.9106 54.4504 66.5429 54.4504 67.4746C54.4504 68.4006 55.0038 69.0331 55.8 69.0331C56.2856 69.0331 56.6412 68.7959 56.7937 68.4119V68.9541H57.2793V65.0015H56.7937ZM55.8959 68.6152C55.3877 68.6152 54.9755 68.2482 54.9755 67.4746C54.9755 66.6897 55.3877 66.3227 55.8959 66.3227C56.4041 66.3227 56.822 66.6897 56.822 67.4746C56.822 68.2482 56.4041 68.6152 55.8959 68.6152ZM61.1139 65.9106C60.6339 65.9106 60.2387 66.142 60.0523 66.5091V65.0015H59.5667V68.9541H59.9958L60.0523 68.4571C60.2612 68.8185 60.6226 69.0331 61.1026 69.0331C61.9269 69.0331 62.4069 68.3724 62.4069 67.469C62.4069 66.5429 61.8988 65.9106 61.1139 65.9106ZM60.9671 68.6152C60.4589 68.6152 60.041 68.2482 60.041 67.469C60.041 66.6897 60.4532 66.3227 60.9671 66.3227C61.4753 66.3227 61.8875 66.6897 61.8875 67.469C61.8875 68.2482 61.4753 68.6152 60.9671 68.6152ZM65.1981 65.9896L64.2043 68.3216L63.1935 65.9896H62.6402L63.9276 68.8862L63.8316 69.067C63.6114 69.5017 63.5097 69.6542 63.1935 69.6542C63.075 69.6542 62.9112 69.6147 62.77 69.5582V70.0043C62.9169 70.0663 63.0919 70.1059 63.2274 70.1059C63.7526 70.1059 64.0066 69.8405 64.3341 69.0952L65.7006 65.9896H65.1981Z" fill="#161658" style="fill:#161658;fill:color(display-p3 0.0853 0.0853 0.3452);fill-opacity:1;"/>
</g>
</svg>
