<svg xmlns="http://www.w3.org/2000/svg" fill="none" viewBox="0 0 822 482"><rect width="822" height="482" fill="#161658" rx="7" style="fill: color(display-p3 0.0853 0.0853 0.3452); fill-opacity: 1;"></rect><mask id="path-2-inside-1_781_1136" fill="#fff"><path d="M370 39h421v368H370V39Z"></path></mask><path fill="#222267" d="M371 407V39h-2v368h2Z" mask="url(#path-2-inside-1_781_1136)" style="fill: color(display-p3 0.1347 0.1347 0.4057); fill-opacity: 1;"></path><path fill="#B1C3FC" d="M422.558 56h-2.877l-5.796-6.993V56h-2.415V41.3h2.415v6.594l5.586-6.594h2.877l-5.943 7.161L422.558 56Zm1.712-12.075a1.466 1.466 0 0 1-1.449-1.449c0-.798.651-1.449 1.449-1.449s1.449.651 1.449 1.449c0 .777-.651 1.449-1.449 1.449ZM423.136 56V45.5h2.268V56h-2.268Zm9.921-8.316h-2.604v5.04c0 1.344.882 1.323 2.604 1.239V56c-3.486.42-4.872-.546-4.872-3.276v-5.04h-1.932V45.5h1.932v-2.268l2.268-.672v2.94h2.604v2.184Zm2.864.714c0 1.911 5.649.756 5.649 4.641 0 2.1-1.827 3.234-4.095 3.234-2.1 0-3.612-.945-4.284-2.457l1.953-1.134c.336.945 1.176 1.512 2.331 1.512 1.008 0 1.785-.336 1.785-1.176 0-1.869-5.649-.819-5.649-4.578 0-1.974 1.701-3.213 3.843-3.213 1.722 0 3.15.798 3.885 2.184l-1.911 1.071c-.378-.819-1.113-1.197-1.974-1.197-.819 0-1.533.357-1.533 1.113Zm18.248 7.875c-4.242 0-7.623-3.36-7.623-7.623s3.381-7.623 7.623-7.623c4.263 0 7.623 3.36 7.623 7.623s-3.36 7.623-7.623 7.623Zm0-2.352c2.94 0 5.208-2.247 5.208-5.271s-2.268-5.271-5.208-5.271c-2.94 0-5.208 2.247-5.208 5.271s2.268 5.271 5.208 5.271Zm15.958-8.421h2.478L468.51 56h-2.625l-4.095-10.5h2.478l2.94 7.98 2.919-7.98Zm4.449 6.216c.357 1.638 1.68 2.478 3.36 2.478 1.26 0 2.205-.567 2.709-1.302l1.869 1.092c-.966 1.428-2.541 2.289-4.599 2.289-3.465 0-5.712-2.373-5.712-5.523 0-3.108 2.247-5.523 5.544-5.523 3.129 0 5.271 2.52 5.271 5.544 0 .315-.042.651-.084.945h-8.358Zm-.021-1.848h6.174c-.315-1.806-1.638-2.583-3.003-2.583-1.701 0-2.856 1.008-3.171 2.583Zm11.886-2.604c.63-1.428 1.911-1.953 3.234-1.953v2.457c-1.491-.105-3.234.588-3.234 2.94V56h-2.268V45.5h2.268v1.764ZM497.63 45.5h2.478L496.013 56h-2.625l-4.095-10.5h2.478l2.94 7.98 2.919-7.98Zm4.208-1.575a1.466 1.466 0 0 1-1.449-1.449c0-.798.651-1.449 1.449-1.449s1.449.651 1.449 1.449c0 .777-.651 1.449-1.449 1.449ZM500.704 56V45.5h2.268V56h-2.268Zm5.847-4.284c.357 1.638 1.68 2.478 3.36 2.478 1.26 0 2.205-.567 2.709-1.302l1.869 1.092c-.966 1.428-2.541 2.289-4.599 2.289-3.465 0-5.712-2.373-5.712-5.523 0-3.108 2.247-5.523 5.544-5.523 3.129 0 5.271 2.52 5.271 5.544 0 .315-.042.651-.084.945h-8.358Zm-.021-1.848h6.174c-.315-1.806-1.638-2.583-3.003-2.583-1.701 0-2.856 1.008-3.171 2.583Zm21.304-4.368h2.394L526.931 56h-2.226l-2.184-7.077L520.316 56h-2.226l-3.297-10.5h2.394l2.037 7.245 2.205-7.245h2.163l2.184 7.245 2.058-7.245Z" style="fill: color(display-p3 0.6941 0.7647 0.9882); fill-opacity: 1;"></path><path fill="#A3A1F3" d="M414.411 106.643c-2.343 0-4.026-1.76-4.026-3.993 0-2.233 1.683-3.993 4.026-3.993 1.408 0 2.662.715 3.311 1.837l-1.1.638c-.407-.759-1.243-1.243-2.211-1.243-1.661 0-2.761 1.177-2.761 2.761s1.1 2.761 2.761 2.761c.968 0 1.815-.484 2.211-1.243l1.1.627c-.638 1.122-1.892 1.848-3.311 1.848Zm7.42 0c-1.694 0-2.915-1.034-2.915-2.695V98.8h1.265v5.071c0 .902.517 1.54 1.65 1.54s1.65-.638 1.65-1.54V98.8h1.265v5.148c0 1.661-1.232 2.695-2.915 2.695Zm8.979-.143-1.628-2.805h-1.496v2.805h-1.265v-7.7h3.08c1.375 0 2.475 1.1 2.475 2.475 0 .99-.627 1.87-1.529 2.233l1.749 2.992h-1.386Zm-3.124-6.512v2.574h1.815c.671 0 1.21-.572 1.21-1.287 0-.726-.539-1.287-1.21-1.287h-1.815Zm10.09 6.512-1.628-2.805h-1.496v2.805h-1.265v-7.7h3.08c1.375 0 2.475 1.1 2.475 2.475 0 .99-.627 1.87-1.529 2.233l1.749 2.992h-1.386Zm-3.124-6.512v2.574h1.815c.671 0 1.21-.572 1.21-1.287 0-.726-.539-1.287-1.21-1.287h-1.815Zm6.966 5.302h3.41v1.21h-4.675v-7.7h4.62v1.21h-3.355v2.002h3.08v1.199h-3.08v2.079Zm9.408-6.49h1.265v7.7h-.99l-3.63-5.225v5.225h-1.265v-7.7h.99l3.63 5.225V98.8Zm8.028 0v1.21h-2.167v6.49h-1.265v-6.49h-2.178V98.8h5.61Zm9.933 7.7h-1.507l-3.036-3.663v3.663h-1.265v-7.7h1.265v3.454l2.926-3.454h1.507l-3.113 3.751 3.223 3.949Zm1.04-7.7h1.265v7.7h-1.265v-7.7Zm8.029 0v1.21h-2.167v6.49h-1.265v-6.49h-2.178V98.8h5.61Zm3.504 7.843c-1.518 0-2.563-.748-2.97-1.892l1.089-.638c.275.781.869 1.298 1.914 1.298 1.001 0 1.43-.451 1.43-1.012 0-.682-.605-.913-1.749-1.265-1.199-.363-2.365-.803-2.365-2.255 0-1.419 1.177-2.222 2.475-2.222 1.265 0 2.2.671 2.684 1.694l-1.067.616c-.275-.616-.759-1.078-1.617-1.078-.737 0-1.21.374-1.21.957 0 .594.429.847 1.551 1.199 1.276.407 2.563.803 2.563 2.332 0 1.408-1.122 2.266-2.728 2.266Zm7.018-7.843h1.265v7.7h-1.265v-7.7Zm7.644 0h1.265v7.7h-.99l-3.63-5.225v5.225h-1.265v-7.7h.99l3.63 5.225V98.8Zm11.009 7.7-.539-1.551h-3.278l-.539 1.551H501.5l2.794-7.7h1.518l2.783 7.7h-1.364Zm-3.399-2.739h2.442l-1.221-3.476-1.221 3.476Zm9.162 2.882c-2.343 0-4.026-1.76-4.026-3.993 0-2.233 1.683-3.993 4.026-3.993 1.408 0 2.662.715 3.311 1.837l-1.1.638c-.407-.759-1.243-1.243-2.211-1.243-1.661 0-2.761 1.177-2.761 2.761s1.1 2.761 2.761 2.761c.968 0 1.815-.484 2.211-1.243l1.1.627c-.638 1.122-1.892 1.848-3.311 1.848Zm8.169 0c-2.343 0-4.026-1.76-4.026-3.993 0-2.233 1.683-3.993 4.026-3.993 1.408 0 2.662.715 3.311 1.837l-1.1.638c-.407-.759-1.243-1.243-2.211-1.243-1.661 0-2.761 1.177-2.761 2.761s1.1 2.761 2.761 2.761c.968 0 1.815-.484 2.211-1.243l1.1.627c-.638 1.122-1.892 1.848-3.311 1.848Zm8.136 0a3.965 3.965 0 0 1-3.993-3.993 3.965 3.965 0 0 1 3.993-3.993 3.958 3.958 0 0 1 3.993 3.993 3.958 3.958 0 0 1-3.993 3.993Zm0-1.232c1.54 0 2.728-1.177 2.728-2.761s-1.188-2.761-2.728-2.761c-1.54 0-2.728 1.177-2.728 2.761s1.188 2.761 2.728 2.761Zm8.141 1.232c-1.694 0-2.915-1.034-2.915-2.695V98.8h1.265v5.071c0 .902.517 1.54 1.65 1.54s1.65-.638 1.65-1.54V98.8h1.265v5.148c0 1.661-1.232 2.695-2.915 2.695Zm9.21-7.843h1.265v7.7h-.99l-3.63-5.225v5.225h-1.265v-7.7h.99l3.63 5.225V98.8Zm8.027 0v1.21h-2.167v6.49h-1.265v-6.49h-2.178V98.8h5.61Z" style="fill: color(display-p3 0.6373 0.6309 0.9511); fill-opacity: 1;"></path><rect width="28" height="25" x="738" y="90" fill="#3F3CCD" rx="4" style="fill: color(display-p3 0.247 0.2357 0.8028); fill-opacity: 1;"></rect><path fill="#CFCEF2" d="M748.561 97.9h1.3v9.1h-1.495v-7.501l-1.833.52-.364-1.274 2.392-.845Zm2.731 0h5.785v1.3l-3.198 7.8h-1.573l3.146-7.67h-4.16V97.9Z" style="fill: color(display-p3 0.8118 0.8078 0.949); fill-opacity: 1;"></path><path fill="#BFBEEC" d="M417.23 152.555c.885.465 1.47 1.32 1.47 2.445 0 1.74-1.41 3-3.15 3h-4.5v-10.5h4.17c1.695 0 3.075 1.23 3.075 2.91 0 .915-.405 1.665-1.065 2.145Zm-2.01-3.435h-2.445v2.76h2.445c.765 0 1.35-.6 1.35-1.38 0-.78-.585-1.38-1.35-1.38Zm.33 7.26c.81 0 1.425-.645 1.425-1.47s-.615-1.47-1.425-1.47h-2.775v2.94h2.775Zm7.564 1.815c-2.19 0-3.96-1.725-3.96-3.945 0-2.235 1.77-3.945 3.96-3.945 2.205 0 3.96 1.71 3.96 3.945 0 2.22-1.755 3.945-3.96 3.945Zm0-1.575c1.32 0 2.34-1.005 2.34-2.37 0-1.365-1.02-2.37-2.34-2.37-1.32 0-2.34 1.005-2.34 2.37 0 1.365 1.02 2.37 2.34 2.37Zm10.764-9.12h1.62V158h-1.62v-1.08c-.57.795-1.455 1.275-2.625 1.275-2.04 0-3.735-1.725-3.735-3.945 0-2.235 1.695-3.945 3.735-3.945 1.17 0 2.055.48 2.625 1.26V147.5Zm-2.37 9.15c1.35 0 2.37-1.005 2.37-2.4s-1.02-2.4-2.37-2.4-2.37 1.005-2.37 2.4 1.02 2.4 2.37 2.4Zm10.334-6.15h1.725l-2.88 7.74c-.705 1.905-1.935 2.865-3.66 2.76v-1.515c1.05.06 1.62-.48 1.995-1.47l.075-.15-3.18-7.365h1.77l2.235 5.445 1.92-5.445Zm9.068-3v1.65h-2.955V158h-1.725v-8.85h-2.97v-1.65h7.65Zm1.209 4.26c.45-1.02 1.365-1.395 2.31-1.395v1.755c-1.065-.075-2.31.42-2.31 2.1V158h-1.62v-7.5h1.62v1.26Zm8.495-1.26h1.62v7.5h-1.62v-1.08c-.57.795-1.455 1.275-2.625 1.275-2.04 0-3.735-1.725-3.735-3.945 0-2.235 1.695-3.945 3.735-3.945 1.17 0 2.055.48 2.625 1.26V150.5Zm-2.37 6.15c1.35 0 2.37-1.005 2.37-2.4s-1.02-2.4-2.37-2.4-2.37 1.005-2.37 2.4 1.02 2.4 2.37 2.4Zm8.818 1.545c-2.265 0-3.96-1.725-3.96-3.945 0-2.235 1.695-3.945 3.96-3.945 1.47 0 2.745.765 3.345 1.935l-1.395.81c-.33-.705-1.065-1.155-1.965-1.155-1.32 0-2.325 1.005-2.325 2.355s1.005 2.355 2.325 2.355c.9 0 1.635-.465 1.995-1.155l1.395.795c-.63 1.185-1.905 1.95-3.375 1.95Zm5.104-3.255c.255 1.17 1.2 1.77 2.4 1.77.9 0 1.575-.405 1.935-.93l1.335.78c-.69 1.02-1.815 1.635-3.285 1.635-2.475 0-4.08-1.695-4.08-3.945 0-2.22 1.605-3.945 3.96-3.945 2.235 0 3.765 1.8 3.765 3.96 0 .225-.03.465-.06.675h-5.97Zm-.015-1.32h4.41c-.225-1.29-1.17-1.845-2.145-1.845-1.215 0-2.04.72-2.265 1.845Z" style="fill: color(display-p3 0.7505 0.747 0.9258); fill-opacity: 1;"></path><path stroke="#BFBEEC" d="M755.5 152H766m0 0-3-3m3 3-3 3" style="stroke: color(display-p3 0.7505 0.747 0.9258); stroke-opacity: 1;"></path><path fill="#BFBEEC" d="m417.035 208-2.22-3.825h-2.04V208h-1.725v-10.5h4.2c1.875 0 3.375 1.5 3.375 3.375 0 1.35-.855 2.55-2.085 3.045l2.385 4.08h-1.89Zm-4.26-8.88v3.51h2.475c.915 0 1.65-.78 1.65-1.755 0-.99-.735-1.755-1.65-1.755h-2.475Zm12.314 1.38h1.62v7.5h-1.62v-1.08c-.57.795-1.455 1.275-2.625 1.275-2.04 0-3.735-1.725-3.735-3.945 0-2.235 1.695-3.945 3.735-3.945 1.17 0 2.055.48 2.625 1.26V200.5Zm-2.37 6.15c1.35 0 2.37-1.005 2.37-2.4s-1.02-2.4-2.37-2.4-2.37 1.005-2.37 2.4 1.02 2.4 2.37 2.4Zm11.218-9.15h1.62V208h-1.62v-1.08c-.57.795-1.455 1.275-2.625 1.275-2.04 0-3.735-1.725-3.735-3.945 0-2.235 1.695-3.945 3.735-3.945 1.17 0 2.055.48 2.625 1.26V197.5Zm-2.37 9.15c1.35 0 2.37-1.005 2.37-2.4s-1.02-2.4-2.37-2.4-2.37 1.005-2.37 2.4 1.02 2.4 2.37 2.4Zm6.088-7.275c-.57 0-1.035-.48-1.035-1.035 0-.57.465-1.035 1.035-1.035.57 0 1.035.465 1.035 1.035 0 .555-.465 1.035-1.035 1.035Zm-.81 8.625v-7.5h1.62v7.5h-1.62Zm4.312-5.43c0 1.365 4.035.54 4.035 3.315 0 1.5-1.305 2.31-2.925 2.31-1.5 0-2.58-.675-3.06-1.755l1.395-.81c.24.675.84 1.08 1.665 1.08.72 0 1.275-.24 1.275-.84 0-1.335-4.035-.585-4.035-3.27 0-1.41 1.215-2.295 2.745-2.295 1.23 0 2.25.57 2.775 1.56l-1.365.765c-.27-.585-.795-.855-1.41-.855-.585 0-1.095.255-1.095.795Zm8.716-2.265c1.68 0 2.88 1.14 2.88 3.09V208h-1.62v-4.44c0-1.14-.66-1.74-1.68-1.74-1.065 0-1.905.63-1.905 2.16V208h-1.62v-10.5h1.62v3.96c.495-.78 1.305-1.155 2.325-1.155Zm9.5 7.695-2.97-10.5h1.815l2.205 8.205 2.385-8.205h1.59l2.37 8.205 2.205-8.205h1.815l-2.97 10.5h-1.995l-2.22-7.665-2.235 7.665h-1.995Zm12.442-3.06c.255 1.17 1.2 1.77 2.4 1.77.9 0 1.575-.405 1.935-.93l1.335.78c-.69 1.02-1.815 1.635-3.285 1.635-2.475 0-4.08-1.695-4.08-3.945 0-2.22 1.605-3.945 3.96-3.945 2.235 0 3.765 1.8 3.765 3.96 0 .225-.03.465-.06.675h-5.97Zm-.015-1.32h4.41c-.225-1.29-1.17-1.845-2.145-1.845-1.215 0-2.04.72-2.265 1.845Zm6.87 4.38v-10.95h1.62V208h-1.62Zm2.901 0v-10.95h1.62V208h-1.62Zm6.846-7.695c1.68 0 2.88 1.14 2.88 3.09V208h-1.62v-4.44c0-1.14-.66-1.74-1.68-1.74-1.065 0-1.905.63-1.905 2.16V208h-1.62v-7.5h1.62v.96c.495-.78 1.305-1.155 2.325-1.155Zm5.299 4.635c.255 1.17 1.2 1.77 2.4 1.77.9 0 1.575-.405 1.935-.93l1.335.78c-.69 1.02-1.815 1.635-3.285 1.635-2.475 0-4.08-1.695-4.08-3.945 0-2.22 1.605-3.945 3.96-3.945 2.235 0 3.765 1.8 3.765 3.96 0 .225-.03.465-.06.675h-5.97Zm-.015-1.32h4.41c-.225-1.29-1.17-1.845-2.145-1.845-1.215 0-2.04.72-2.265 1.845Zm8.033-1.05c0 1.365 4.035.54 4.035 3.315 0 1.5-1.305 2.31-2.925 2.31-1.5 0-2.58-.675-3.06-1.755l1.395-.81c.24.675.84 1.08 1.665 1.08.72 0 1.275-.24 1.275-.84 0-1.335-4.035-.585-4.035-3.27 0-1.41 1.215-2.295 2.745-2.295 1.23 0 2.25.57 2.775 1.56l-1.365.765c-.27-.585-.795-.855-1.41-.855-.585 0-1.095.255-1.095.795Zm5.86 0c0 1.365 4.035.54 4.035 3.315 0 1.5-1.305 2.31-2.925 2.31-1.5 0-2.58-.675-3.06-1.755l1.395-.81c.24.675.84 1.08 1.665 1.08.72 0 1.275-.24 1.275-.84 0-1.335-4.035-.585-4.035-3.27 0-1.41 1.215-2.295 2.745-2.295 1.23 0 2.25.57 2.775 1.56l-1.365.765c-.27-.585-.795-.855-1.41-.855-.585 0-1.095.255-1.095.795Zm11.984-5.07c1.98 0 3.48 1.5 3.48 3.45 0 1.935-1.5 3.45-3.48 3.45h-2.145v3.6h-1.725v-10.5h3.87Zm0 5.28c1.02 0 1.755-.78 1.755-1.83 0-1.065-.735-1.83-1.755-1.83h-2.145v3.66h2.145Zm8.217-2.475c1.68 0 2.88 1.14 2.88 3.09V208h-1.62v-4.44c0-1.14-.66-1.74-1.68-1.74-1.065 0-1.905.63-1.905 2.16V208h-1.62v-10.5h1.62v3.96c.495-.78 1.305-1.155 2.325-1.155Zm8.933.195h1.725l-2.88 7.74c-.705 1.905-1.935 2.865-3.66 2.76v-1.515c1.05.06 1.62-.48 1.995-1.47l.075-.15-3.18-7.365h1.77l2.235 5.445 1.92-5.445Zm3.139 2.07c0 1.365 4.035.54 4.035 3.315 0 1.5-1.305 2.31-2.925 2.31-1.5 0-2.58-.675-3.06-1.755l1.395-.81c.24.675.84 1.08 1.665 1.08.72 0 1.275-.24 1.275-.84 0-1.335-4.035-.585-4.035-3.27 0-1.41 1.215-2.295 2.745-2.295 1.23 0 2.25.57 2.775 1.56l-1.365.765c-.27-.585-.795-.855-1.41-.855-.585 0-1.095.255-1.095.795Zm5.581-3.195c-.57 0-1.035-.48-1.035-1.035 0-.57.465-1.035 1.035-1.035.57 0 1.035.465 1.035 1.035 0 .555-.465 1.035-1.035 1.035Zm-.81 8.625v-7.5h1.62v7.5h-1.62Zm6.441.195c-2.265 0-3.96-1.725-3.96-3.945 0-2.235 1.695-3.945 3.96-3.945 1.47 0 2.745.765 3.345 1.935l-1.395.81c-.33-.705-1.065-1.155-1.965-1.155-1.32 0-2.325 1.005-2.325 2.355s1.005 2.355 2.325 2.355c.9 0 1.635-.465 1.995-1.155l1.395.795c-.63 1.185-1.905 1.95-3.375 1.95Zm9.769-7.695h1.62v7.5h-1.62v-1.08c-.57.795-1.455 1.275-2.625 1.275-2.04 0-3.735-1.725-3.735-3.945 0-2.235 1.695-3.945 3.735-3.945 1.17 0 2.055.48 2.625 1.26V200.5Zm-2.37 6.15c1.35 0 2.37-1.005 2.37-2.4s-1.02-2.4-2.37-2.4-2.37 1.005-2.37 2.4 1.02 2.4 2.37 2.4Zm5.278 1.35v-10.95h1.62V208h-1.62Zm7.881-1.65h4.65V208h-6.375v-10.5h6.3v1.65h-4.575v2.73h4.2v1.635h-4.2v2.835Zm12.229 1.65h-1.875l-1.86-2.565-1.875 2.565h-1.89l2.82-3.855-2.67-3.645h1.875l1.725 2.37 1.725-2.37h1.89l-2.67 3.66 2.805 3.84Zm5.886-7.5h1.62v7.5h-1.62v-1.08c-.57.795-1.455 1.275-2.625 1.275-2.04 0-3.735-1.725-3.735-3.945 0-2.235 1.695-3.945 3.735-3.945 1.17 0 2.055.48 2.625 1.26V200.5Zm-2.37 6.15c1.35 0 2.37-1.005 2.37-2.4s-1.02-2.4-2.37-2.4-2.37 1.005-2.37 2.4 1.02 2.4 2.37 2.4Zm13.469-6.345c1.695 0 2.835 1.17 2.835 3.045V208h-1.62v-4.545c0-1.05-.57-1.635-1.455-1.635-.96 0-1.635.615-1.635 1.98v4.2h-1.62v-4.545c0-1.05-.525-1.635-1.41-1.635-.915 0-1.665.615-1.665 1.98v4.2h-1.62v-7.5h1.62v.9c.48-.735 1.215-1.095 2.145-1.095.975 0 1.695.435 2.13 1.185.495-.78 1.29-1.185 2.295-1.185Z" style="fill: color(display-p3 0.7505 0.747 0.9258); fill-opacity: 1;"></path><path stroke="#BFBEEC" d="M755.5 202H766m0 0-3-3m3 3-3 3" style="stroke: color(display-p3 0.7505 0.747 0.9258); stroke-opacity: 1;"></path><path fill="#BFBEEC" d="M421.1 247.5V258h-1.725v-7.485l-3.195 5.28h-.21l-3.195-5.295v7.5h-1.725v-10.5h1.86l3.165 5.25 3.18-5.25h1.845Zm4.929 10.695c-2.265 0-3.96-1.725-3.96-3.945 0-2.235 1.695-3.945 3.96-3.945 1.47 0 2.745.765 3.345 1.935l-1.395.81c-.33-.705-1.065-1.155-1.965-1.155-1.32 0-2.325 1.005-2.325 2.355s1.005 2.355 2.325 2.355c.9 0 1.635-.465 1.995-1.155l1.395.795c-.63 1.185-1.905 1.95-3.375 1.95Zm12.014-.195h-2.055l-4.14-4.995V258h-1.725v-10.5h1.725v4.71l3.99-4.71h2.055l-4.245 5.115 4.395 5.385Zm1-3.06c.255 1.17 1.2 1.77 2.4 1.77.9 0 1.575-.405 1.935-.93l1.335.78c-.69 1.02-1.815 1.635-3.285 1.635-2.475 0-4.08-1.695-4.08-3.945 0-2.22 1.605-3.945 3.96-3.945 2.235 0 3.765 1.8 3.765 3.96 0 .225-.03.465-.06.675h-5.97Zm-.015-1.32h4.41c-.225-1.29-1.17-1.845-2.145-1.845-1.215 0-2.04.72-2.265 1.845Zm8.033-1.05c0 1.365 4.035.54 4.035 3.315 0 1.5-1.305 2.31-2.925 2.31-1.5 0-2.58-.675-3.06-1.755l1.395-.81c.24.675.84 1.08 1.665 1.08.72 0 1.275-.24 1.275-.84 0-1.335-4.035-.585-4.035-3.27 0-1.41 1.215-2.295 2.745-2.295 1.23 0 2.25.57 2.775 1.56l-1.365.765c-.27-.585-.795-.855-1.41-.855-.585 0-1.095.255-1.095.795Zm5.86 0c0 1.365 4.035.54 4.035 3.315 0 1.5-1.305 2.31-2.925 2.31-1.5 0-2.58-.675-3.06-1.755l1.395-.81c.24.675.84 1.08 1.665 1.08.72 0 1.275-.24 1.275-.84 0-1.335-4.035-.585-4.035-3.27 0-1.41 1.215-2.295 2.745-2.295 1.23 0 2.25.57 2.775 1.56l-1.365.765c-.27-.585-.795-.855-1.41-.855-.585 0-1.095.255-1.095.795Zm8.208 5.625c-2.19 0-3.96-1.725-3.96-3.945 0-2.235 1.77-3.945 3.96-3.945 2.205 0 3.96 1.71 3.96 3.945 0 2.22-1.755 3.945-3.96 3.945Zm0-1.575c1.32 0 2.34-1.005 2.34-2.37 0-1.365-1.02-2.37-2.34-2.37-1.32 0-2.34 1.005-2.34 2.37 0 1.365 1.02 2.37 2.34 2.37Zm8.77-6.315c1.68 0 2.88 1.14 2.88 3.09V258h-1.62v-4.44c0-1.14-.66-1.74-1.68-1.74-1.065 0-1.905.63-1.905 2.16V258h-1.62v-7.5h1.62v.96c.495-.78 1.305-1.155 2.325-1.155Zm12.199 7.89c-3.03 0-5.445-2.4-5.445-5.445a5.407 5.407 0 0 1 5.445-5.445c3.045 0 5.445 2.4 5.445 5.445 0 3.045-2.4 5.445-5.445 5.445Zm0-1.68c2.1 0 3.72-1.605 3.72-3.765s-1.62-3.765-3.72-3.765-3.72 1.605-3.72 3.765 1.62 3.765 3.72 3.765Zm7.934-4.755c.45-1.02 1.365-1.395 2.31-1.395v1.755c-1.065-.075-2.31.42-2.31 2.1V258h-1.62v-7.5h1.62v1.26Zm8.495-1.26h1.62v7.5h-1.62v-1.08c-.57.795-1.455 1.275-2.625 1.275-2.04 0-3.735-1.725-3.735-3.945 0-2.235 1.695-3.945 3.735-3.945 1.17 0 2.055.48 2.625 1.26V250.5Zm-2.37 6.15c1.35 0 2.37-1.005 2.37-2.4s-1.02-2.4-2.37-2.4-2.37 1.005-2.37 2.4 1.02 2.4 2.37 2.4Zm5.278 1.35v-10.95h1.62V258h-1.62Zm12.981-10.5v1.65h-2.955V258h-1.725v-8.85h-2.97v-1.65h7.65Zm4.516 2.805c1.68 0 2.88 1.14 2.88 3.09V258h-1.62v-4.44c0-1.14-.66-1.74-1.68-1.74-1.065 0-1.905.63-1.905 2.16V258h-1.62v-10.5h1.62v3.96c.495-.78 1.305-1.155 2.325-1.155Zm5.299 4.635c.255 1.17 1.2 1.77 2.4 1.77.9 0 1.575-.405 1.935-.93l1.335.78c-.69 1.02-1.815 1.635-3.285 1.635-2.475 0-4.08-1.695-4.08-3.945 0-2.22 1.605-3.945 3.96-3.945 2.235 0 3.765 1.8 3.765 3.96 0 .225-.03.465-.06.675h-5.97Zm-.015-1.32h4.41c-.225-1.29-1.17-1.845-2.145-1.845-1.215 0-2.04.72-2.265 1.845Zm8.491-1.86c.45-1.02 1.365-1.395 2.31-1.395v1.755c-1.065-.075-2.31.42-2.31 2.1V258h-1.62v-7.5h1.62v1.26Zm11.097-1.455c1.695 0 2.835 1.17 2.835 3.045V258h-1.62v-4.545c0-1.05-.57-1.635-1.455-1.635-.96 0-1.635.615-1.635 1.98v4.2h-1.62v-4.545c0-1.05-.525-1.635-1.41-1.635-.915 0-1.665.615-1.665 1.98v4.2h-1.62v-7.5h1.62v.9c.48-.735 1.215-1.095 2.145-1.095.975 0 1.695.435 2.13 1.185.495-.78 1.29-1.185 2.295-1.185Zm7.509 7.89c-2.19 0-3.96-1.725-3.96-3.945 0-2.235 1.77-3.945 3.96-3.945 2.205 0 3.96 1.71 3.96 3.945 0 2.22-1.755 3.945-3.96 3.945Zm0-1.575c1.32 0 2.34-1.005 2.34-2.37 0-1.365-1.02-2.37-2.34-2.37-1.32 0-2.34 1.005-2.34 2.37 0 1.365 1.02 2.37 2.34 2.37Z" style="fill: color(display-p3 0.7505 0.747 0.9258); fill-opacity: 1;"></path><path stroke="#BFBEEC" d="M755.5 252H766m0 0-3-3m3 3-3 3" style="stroke: color(display-p3 0.7505 0.747 0.9258); stroke-opacity: 1;"></path><path fill="#BFBEEC" d="M421.265 302.57v.72c0 2.865-2.07 4.905-5.145 4.905-3.27 0-5.595-2.43-5.595-5.445s2.355-5.445 5.505-5.445c1.995 0 3.69 1.005 4.575 2.49l-1.485.855c-.54-.975-1.71-1.665-3.09-1.665-2.22 0-3.78 1.635-3.78 3.78 0 2.115 1.53 3.75 3.885 3.75 1.905 0 3.075-.99 3.39-2.4h-3.51v-1.545h5.25Zm6.015-2.07h1.62v7.5h-1.62v-.96c-.495.78-1.305 1.155-2.325 1.155-1.68 0-2.88-1.14-2.88-3.09V300.5h1.62v4.44c0 1.14.66 1.74 1.68 1.74 1.065 0 1.905-.63 1.905-2.16v-4.02Zm8.854 0h1.62v7.5h-1.62v-1.08c-.57.795-1.455 1.275-2.625 1.275-2.04 0-3.735-1.725-3.735-3.945 0-2.235 1.695-3.945 3.735-3.945 1.17 0 2.055.48 2.625 1.26V300.5Zm-2.37 6.15c1.35 0 2.37-1.005 2.37-2.4s-1.02-2.4-2.37-2.4-2.37 1.005-2.37 2.4 1.02 2.4 2.37 2.4Zm6.898-4.89c.45-1.02 1.365-1.395 2.31-1.395v1.755c-1.065-.075-2.31.42-2.31 2.1V308h-1.62v-7.5h1.62v1.26Zm8.496-4.26h1.62V308h-1.62v-1.08c-.57.795-1.455 1.275-2.625 1.275-2.04 0-3.735-1.725-3.735-3.945 0-2.235 1.695-3.945 3.735-3.945 1.17 0 2.055.48 2.625 1.26V297.5Zm-2.37 9.15c1.35 0 2.37-1.005 2.37-2.4s-1.02-2.4-2.37-2.4-2.37 1.005-2.37 2.4 1.02 2.4 2.37 2.4Zm6.088-7.275c-.57 0-1.035-.48-1.035-1.035 0-.57.465-1.035 1.035-1.035.57 0 1.035.465 1.035 1.035 0 .555-.465 1.035-1.035 1.035Zm-.81 8.625v-7.5h1.62v7.5h-1.62Zm8.841-7.5h1.62v7.5h-1.62v-1.08c-.57.795-1.455 1.275-2.625 1.275-2.04 0-3.735-1.725-3.735-3.945 0-2.235 1.695-3.945 3.735-3.945 1.17 0 2.055.48 2.625 1.26V300.5Zm-2.37 6.15c1.35 0 2.37-1.005 2.37-2.4s-1.02-2.4-2.37-2.4-2.37 1.005-2.37 2.4 1.02 2.4 2.37 2.4Zm9.223-6.345c1.68 0 2.88 1.14 2.88 3.09V308h-1.62v-4.44c0-1.14-.66-1.74-1.68-1.74-1.065 0-1.905.63-1.905 2.16V308h-1.62v-7.5h1.62v.96c.495-.78 1.305-1.155 2.325-1.155Zm8.21 1.755h-1.86v3.6c0 .96.63.945 1.86.885V308c-2.49.3-3.48-.39-3.48-2.34v-3.6h-1.38v-1.56h1.38v-1.62l1.62-.48v2.1h1.86v1.56Zm10.422-4.56h1.725V308h-1.725v-4.545h-4.5V308h-1.725v-10.5h1.725v4.305h4.5V297.5Zm4.394 7.44c.255 1.17 1.2 1.77 2.4 1.77.9 0 1.575-.405 1.935-.93l1.335.78c-.69 1.02-1.815 1.635-3.285 1.635-2.475 0-4.08-1.695-4.08-3.945 0-2.22 1.605-3.945 3.96-3.945 2.235 0 3.765 1.8 3.765 3.96 0 .225-.03.465-.06.675h-5.97Zm-.015-1.32h4.41c-.225-1.29-1.17-1.845-2.145-1.845-1.215 0-2.04.72-2.265 1.845Zm12.767-3.12h1.62v7.5h-1.62v-1.08c-.57.795-1.455 1.275-2.625 1.275-2.04 0-3.735-1.725-3.735-3.945 0-2.235 1.695-3.945 3.735-3.945 1.17 0 2.055.48 2.625 1.26V300.5Zm-2.37 6.15c1.35 0 2.37-1.005 2.37-2.4s-1.02-2.4-2.37-2.4-2.37 1.005-2.37 2.4 1.02 2.4 2.37 2.4Zm5.278 1.35v-10.95h1.62V308h-1.62Zm7.086-5.94h-1.86v3.6c0 .96.63.945 1.86.885V308c-2.49.3-3.48-.39-3.48-2.34v-3.6h-1.38v-1.56h1.38v-1.62l1.62-.48v2.1h1.86v1.56Zm4.814-1.755c1.68 0 2.88 1.14 2.88 3.09V308h-1.62v-4.44c0-1.14-.66-1.74-1.68-1.74-1.065 0-1.905.63-1.905 2.16V308h-1.62v-10.5h1.62v3.96c.495-.78 1.305-1.155 2.325-1.155ZM533.545 308h-2.055l-4.14-4.995V308h-1.725v-10.5h1.725v4.71l3.99-4.71h2.055l-4.245 5.115 4.395 5.385Zm1.223-8.625c-.57 0-1.035-.48-1.035-1.035 0-.57.465-1.035 1.035-1.035.57 0 1.035.465 1.035 1.035 0 .555-.465 1.035-1.035 1.035Zm-.81 8.625v-7.5h1.62v7.5h-1.62Zm7.086-5.94h-1.86v3.6c0 .96.63.945 1.86.885V308c-2.49.3-3.48-.39-3.48-2.34v-3.6h-1.38v-1.56h1.38v-1.62l1.62-.48v2.1h1.86v1.56Z" style="fill: color(display-p3 0.7505 0.747 0.9258); fill-opacity: 1;"></path><path stroke="#BFBEEC" d="M755.5 302H766m0 0-3-3m3 3-3 3" style="stroke: color(display-p3 0.7505 0.747 0.9258); stroke-opacity: 1;"></path><path fill="#BFBEEC" d="m417.035 358-2.22-3.825h-2.04V358h-1.725v-10.5h4.2c1.875 0 3.375 1.5 3.375 3.375 0 1.35-.855 2.55-2.085 3.045l2.385 4.08h-1.89Zm-4.26-8.88v3.51h2.475c.915 0 1.65-.78 1.65-1.755 0-.99-.735-1.755-1.65-1.755h-2.475Zm12.314 1.38h1.62v7.5h-1.62v-1.08c-.57.795-1.455 1.275-2.625 1.275-2.04 0-3.735-1.725-3.735-3.945 0-2.235 1.695-3.945 3.735-3.945 1.17 0 2.055.48 2.625 1.26V350.5Zm-2.37 6.15c1.35 0 2.37-1.005 2.37-2.4s-1.02-2.4-2.37-2.4-2.37 1.005-2.37 2.4 1.02 2.4 2.37 2.4Zm11.218-9.15h1.62V358h-1.62v-1.08c-.57.795-1.455 1.275-2.625 1.275-2.04 0-3.735-1.725-3.735-3.945 0-2.235 1.695-3.945 3.735-3.945 1.17 0 2.055.48 2.625 1.26V347.5Zm-2.37 9.15c1.35 0 2.37-1.005 2.37-2.4s-1.02-2.4-2.37-2.4-2.37 1.005-2.37 2.4 1.02 2.4 2.37 2.4Zm6.088-7.275c-.57 0-1.035-.48-1.035-1.035 0-.57.465-1.035 1.035-1.035.57 0 1.035.465 1.035 1.035 0 .555-.465 1.035-1.035 1.035Zm-.81 8.625v-7.5h1.62v7.5h-1.62Zm4.312-5.43c0 1.365 4.035.54 4.035 3.315 0 1.5-1.305 2.31-2.925 2.31-1.5 0-2.58-.675-3.06-1.755l1.395-.81c.24.675.84 1.08 1.665 1.08.72 0 1.275-.24 1.275-.84 0-1.335-4.035-.585-4.035-3.27 0-1.41 1.215-2.295 2.745-2.295 1.23 0 2.25.57 2.775 1.56l-1.365.765c-.27-.585-.795-.855-1.41-.855-.585 0-1.095.255-1.095.795Zm8.716-2.265c1.68 0 2.88 1.14 2.88 3.09V358h-1.62v-4.44c0-1.14-.66-1.74-1.68-1.74-1.065 0-1.905.63-1.905 2.16V358h-1.62v-10.5h1.62v3.96c.495-.78 1.305-1.155 2.325-1.155Zm9.5 7.695-2.97-10.5h1.815l2.205 8.205 2.385-8.205h1.59l2.37 8.205 2.205-8.205h1.815l-2.97 10.5h-1.995l-2.22-7.665-2.235 7.665h-1.995Zm12.442-3.06c.255 1.17 1.2 1.77 2.4 1.77.9 0 1.575-.405 1.935-.93l1.335.78c-.69 1.02-1.815 1.635-3.285 1.635-2.475 0-4.08-1.695-4.08-3.945 0-2.22 1.605-3.945 3.96-3.945 2.235 0 3.765 1.8 3.765 3.96 0 .225-.03.465-.06.675h-5.97Zm-.015-1.32h4.41c-.225-1.29-1.17-1.845-2.145-1.845-1.215 0-2.04.72-2.265 1.845Zm6.87 4.38v-10.95h1.62V358h-1.62Zm2.901 0v-10.95h1.62V358h-1.62Zm6.846-7.695c1.68 0 2.88 1.14 2.88 3.09V358h-1.62v-4.44c0-1.14-.66-1.74-1.68-1.74-1.065 0-1.905.63-1.905 2.16V358h-1.62v-7.5h1.62v.96c.495-.78 1.305-1.155 2.325-1.155Zm5.299 4.635c.255 1.17 1.2 1.77 2.4 1.77.9 0 1.575-.405 1.935-.93l1.335.78c-.69 1.02-1.815 1.635-3.285 1.635-2.475 0-4.08-1.695-4.08-3.945 0-2.22 1.605-3.945 3.96-3.945 2.235 0 3.765 1.8 3.765 3.96 0 .225-.03.465-.06.675h-5.97Zm-.015-1.32h4.41c-.225-1.29-1.17-1.845-2.145-1.845-1.215 0-2.04.72-2.265 1.845Zm8.033-1.05c0 1.365 4.035.54 4.035 3.315 0 1.5-1.305 2.31-2.925 2.31-1.5 0-2.58-.675-3.06-1.755l1.395-.81c.24.675.84 1.08 1.665 1.08.72 0 1.275-.24 1.275-.84 0-1.335-4.035-.585-4.035-3.27 0-1.41 1.215-2.295 2.745-2.295 1.23 0 2.25.57 2.775 1.56l-1.365.765c-.27-.585-.795-.855-1.41-.855-.585 0-1.095.255-1.095.795Zm5.86 0c0 1.365 4.035.54 4.035 3.315 0 1.5-1.305 2.31-2.925 2.31-1.5 0-2.58-.675-3.06-1.755l1.395-.81c.24.675.84 1.08 1.665 1.08.72 0 1.275-.24 1.275-.84 0-1.335-4.035-.585-4.035-3.27 0-1.41 1.215-2.295 2.745-2.295 1.23 0 2.25.57 2.775 1.56l-1.365.765c-.27-.585-.795-.855-1.41-.855-.585 0-1.095.255-1.095.795Zm11.984-5.07c1.98 0 3.48 1.5 3.48 3.45 0 1.935-1.5 3.45-3.48 3.45h-2.145v3.6h-1.725v-10.5h3.87Zm0 5.28c1.02 0 1.755-.78 1.755-1.83 0-1.065-.735-1.83-1.755-1.83h-2.145v3.66h2.145Zm8.217-2.475c1.68 0 2.88 1.14 2.88 3.09V358h-1.62v-4.44c0-1.14-.66-1.74-1.68-1.74-1.065 0-1.905.63-1.905 2.16V358h-1.62v-10.5h1.62v3.96c.495-.78 1.305-1.155 2.325-1.155Zm8.933.195h1.725l-2.88 7.74c-.705 1.905-1.935 2.865-3.66 2.76v-1.515c1.05.06 1.62-.48 1.995-1.47l.075-.15-3.18-7.365h1.77l2.235 5.445 1.92-5.445Zm3.139 2.07c0 1.365 4.035.54 4.035 3.315 0 1.5-1.305 2.31-2.925 2.31-1.5 0-2.58-.675-3.06-1.755l1.395-.81c.24.675.84 1.08 1.665 1.08.72 0 1.275-.24 1.275-.84 0-1.335-4.035-.585-4.035-3.27 0-1.41 1.215-2.295 2.745-2.295 1.23 0 2.25.57 2.775 1.56l-1.365.765c-.27-.585-.795-.855-1.41-.855-.585 0-1.095.255-1.095.795Zm5.581-3.195c-.57 0-1.035-.48-1.035-1.035 0-.57.465-1.035 1.035-1.035.57 0 1.035.465 1.035 1.035 0 .555-.465 1.035-1.035 1.035Zm-.81 8.625v-7.5h1.62v7.5h-1.62Zm6.441.195c-2.265 0-3.96-1.725-3.96-3.945 0-2.235 1.695-3.945 3.96-3.945 1.47 0 2.745.765 3.345 1.935l-1.395.81c-.33-.705-1.065-1.155-1.965-1.155-1.32 0-2.325 1.005-2.325 2.355s1.005 2.355 2.325 2.355c.9 0 1.635-.465 1.995-1.155l1.395.795c-.63 1.185-1.905 1.95-3.375 1.95Zm9.769-7.695h1.62v7.5h-1.62v-1.08c-.57.795-1.455 1.275-2.625 1.275-2.04 0-3.735-1.725-3.735-3.945 0-2.235 1.695-3.945 3.735-3.945 1.17 0 2.055.48 2.625 1.26V350.5Zm-2.37 6.15c1.35 0 2.37-1.005 2.37-2.4s-1.02-2.4-2.37-2.4-2.37 1.005-2.37 2.4 1.02 2.4 2.37 2.4Zm5.278 1.35v-10.95h1.62V358h-1.62Zm7.881-1.65h4.65V358h-6.375v-10.5h6.3v1.65h-4.575v2.73h4.2v1.635h-4.2v2.835Zm12.229 1.65h-1.875l-1.86-2.565-1.875 2.565h-1.89l2.82-3.855-2.67-3.645h1.875l1.725 2.37 1.725-2.37h1.89l-2.67 3.66 2.805 3.84Zm5.886-7.5h1.62v7.5h-1.62v-1.08c-.57.795-1.455 1.275-2.625 1.275-2.04 0-3.735-1.725-3.735-3.945 0-2.235 1.695-3.945 3.735-3.945 1.17 0 2.055.48 2.625 1.26V350.5Zm-2.37 6.15c1.35 0 2.37-1.005 2.37-2.4s-1.02-2.4-2.37-2.4-2.37 1.005-2.37 2.4 1.02 2.4 2.37 2.4Zm13.469-6.345c1.695 0 2.835 1.17 2.835 3.045V358h-1.62v-4.545c0-1.05-.57-1.635-1.455-1.635-.96 0-1.635.615-1.635 1.98v4.2h-1.62v-4.545c0-1.05-.525-1.635-1.41-1.635-.915 0-1.665.615-1.665 1.98v4.2h-1.62v-7.5h1.62v.9c.48-.735 1.215-1.095 2.145-1.095.975 0 1.695.435 2.13 1.185.495-.78 1.29-1.185 2.295-1.185Z" style="fill: color(display-p3 0.7505 0.747 0.9258); fill-opacity: 1;"></path><path stroke="#BFBEEC" d="M755.5 352H766m0 0-3-3m3 3-3 3" style="stroke: color(display-p3 0.7505 0.747 0.9258); stroke-opacity: 1;"></path><path fill="#BFBEEC" d="M417.275 397.5H419V408h-1.725v-4.545h-4.5V408h-1.725v-10.5h1.725v4.305h4.5V397.5Zm8.174 3h1.725l-2.88 7.74c-.705 1.905-1.935 2.865-3.66 2.76v-1.515c1.05.06 1.62-.48 1.995-1.47l.075-.15-3.18-7.365h1.77l2.235 5.445 1.92-5.445Zm6.383-.195c2.04 0 3.735 1.725 3.735 3.945 0 2.235-1.695 3.945-3.735 3.945-1.17 0-2.055-.48-2.625-1.26V411h-1.62v-10.5h1.62v1.08c.57-.795 1.455-1.275 2.625-1.275Zm-.255 6.345c1.35 0 2.37-1.005 2.37-2.4s-1.02-2.4-2.37-2.4-2.37 1.005-2.37 2.4 1.02 2.4 2.37 2.4Zm6.133-1.71c.255 1.17 1.2 1.77 2.4 1.77.9 0 1.575-.405 1.935-.93l1.335.78c-.69 1.02-1.815 1.635-3.285 1.635-2.475 0-4.08-1.695-4.08-3.945 0-2.22 1.605-3.945 3.96-3.945 2.235 0 3.765 1.8 3.765 3.96 0 .225-.03.465-.06.675h-5.97Zm-.015-1.32h4.41c-.225-1.29-1.17-1.845-2.145-1.845-1.215 0-2.04.72-2.265 1.845Zm8.491-1.86c.45-1.02 1.365-1.395 2.31-1.395v1.755c-1.065-.075-2.31.42-2.31 2.1V408h-1.62v-7.5h1.62v1.26Zm7.282.3h-1.86v3.6c0 .96.63.945 1.86.885V408c-2.49.3-3.48-.39-3.48-2.34v-3.6h-1.38v-1.56h1.38v-1.62l1.62-.48v2.1h1.86v1.56Zm1.837 2.88c.255 1.17 1.2 1.77 2.4 1.77.9 0 1.575-.405 1.935-.93l1.335.78c-.69 1.02-1.815 1.635-3.285 1.635-2.475 0-4.08-1.695-4.08-3.945 0-2.22 1.605-3.945 3.96-3.945 2.235 0 3.765 1.8 3.765 3.96 0 .225-.03.465-.06.675h-5.97Zm-.015-1.32h4.41c-.225-1.29-1.17-1.845-2.145-1.845-1.215 0-2.04.72-2.265 1.845Zm10.815-3.315c1.68 0 2.88 1.14 2.88 3.09V408h-1.62v-4.44c0-1.14-.66-1.74-1.68-1.74-1.065 0-1.905.63-1.905 2.16V408h-1.62v-7.5h1.62v.96c.495-.78 1.305-1.155 2.325-1.155Zm5.479 2.265c0 1.365 4.035.54 4.035 3.315 0 1.5-1.305 2.31-2.925 2.31-1.5 0-2.58-.675-3.06-1.755l1.395-.81c.24.675.84 1.08 1.665 1.08.72 0 1.275-.24 1.275-.84 0-1.335-4.035-.585-4.035-3.27 0-1.41 1.215-2.295 2.745-2.295 1.23 0 2.25.57 2.775 1.56l-1.365.765c-.27-.585-.795-.855-1.41-.855-.585 0-1.095.255-1.095.795Zm5.582-3.195c-.57 0-1.035-.48-1.035-1.035 0-.57.465-1.035 1.035-1.035.57 0 1.035.465 1.035 1.035 0 .555-.465 1.035-1.035 1.035Zm-.81 8.625v-7.5h1.62v7.5h-1.62Zm6.441.195c-2.19 0-3.96-1.725-3.96-3.945 0-2.235 1.77-3.945 3.96-3.945 2.205 0 3.96 1.71 3.96 3.945 0 2.22-1.755 3.945-3.96 3.945Zm0-1.575c1.32 0 2.34-1.005 2.34-2.37 0-1.365-1.02-2.37-2.34-2.37-1.32 0-2.34 1.005-2.34 2.37 0 1.365 1.02 2.37 2.34 2.37Zm8.769-6.315c1.68 0 2.88 1.14 2.88 3.09V408h-1.62v-4.44c0-1.14-.66-1.74-1.68-1.74-1.065 0-1.905.63-1.905 2.16V408h-1.62v-7.5h1.62v.96c.495-.78 1.305-1.155 2.325-1.155ZM505.371 408h-1.935l-3.075-3.465V408h-1.62v-10.5h1.62v6.315l2.91-3.315h1.98l-3.3 3.675 3.42 3.825Zm1.299-8.625c-.57 0-1.035-.48-1.035-1.035 0-.57.465-1.035 1.035-1.035.57 0 1.035.465 1.035 1.035 0 .555-.465 1.035-1.035 1.035Zm-.81 8.625v-7.5h1.62v7.5h-1.62Zm7.086-5.94h-1.86v3.6c0 .96.63.945 1.86.885V408c-2.49.3-3.48-.39-3.48-2.34v-3.6h-1.38v-1.56h1.38v-1.62l1.62-.48v2.1h1.86v1.56Z" style="fill: color(display-p3 0.7505 0.747 0.9258); fill-opacity: 1;"></path><path stroke="#BFBEEC" d="M755.5 402H766m0 0-3-3m3 3-3 3" style="stroke: color(display-p3 0.7505 0.747 0.9258); stroke-opacity: 1;"></path><mask id="path-20-inside-2_781_1136" fill="#fff"><path d="M22 48h301v93H22V48Z"></path></mask><path fill="#222267" d="M323 140H22v2h301v-2Z" mask="url(#path-20-inside-2_781_1136)" style="fill: color(display-p3 0.1333 0.1333 0.4039); fill-opacity: 1;"></path><path fill="#B1C3FC" d="M28.888 50.3c2.772 0 4.872 2.1 4.872 4.83 0 2.709-2.1 4.83-4.872 4.83h-3.003V65H23.47V50.3h5.418Zm0 7.392c1.428 0 2.457-1.092 2.457-2.562 0-1.491-1.029-2.562-2.457-2.562h-3.003v5.124h3.003Zm13.56-3.192h2.267V65h-2.268v-1.512c-.798 1.113-2.037 1.785-3.675 1.785-2.856 0-5.229-2.415-5.229-5.523 0-3.129 2.373-5.523 5.23-5.523 1.637 0 2.876.672 3.674 1.764V54.5Zm-3.319 8.61c1.89 0 3.318-1.407 3.318-3.36 0-1.953-1.428-3.36-3.318-3.36-1.89 0-3.318 1.407-3.318 3.36 0 1.953 1.428 3.36 3.318 3.36Zm13.249-6.426h-2.604v5.04c0 1.344.882 1.323 2.604 1.239V65c-3.486.42-4.872-.546-4.872-3.276v-5.04h-1.932V54.5h1.932v-2.268l2.268-.672v2.94h2.604v2.184Zm2.351-3.759a1.466 1.466 0 0 1-1.449-1.449c0-.798.651-1.449 1.449-1.449s1.449.651 1.449 1.449c0 .777-.651 1.449-1.449 1.449ZM53.595 65V54.5h2.268V65h-2.268Zm5.846-4.284c.357 1.638 1.68 2.478 3.36 2.478 1.26 0 2.205-.567 2.71-1.302l1.868 1.092c-.966 1.428-2.54 2.289-4.599 2.289-3.465 0-5.712-2.373-5.712-5.523 0-3.108 2.247-5.523 5.544-5.523 3.13 0 5.271 2.52 5.271 5.544 0 .315-.042.651-.084.945h-8.358Zm-.02-1.848h6.173c-.315-1.806-1.638-2.583-3.003-2.583-1.7 0-2.856 1.008-3.17 2.583Zm15.141-4.641c2.352 0 4.032 1.596 4.032 4.326V65h-2.268v-6.216c0-1.596-.924-2.436-2.352-2.436-1.491 0-2.667.882-2.667 3.024V65h-2.268V54.5h2.268v1.344c.693-1.092 1.827-1.617 3.255-1.617Zm11.493 2.457h-2.604v5.04c0 1.344.882 1.323 2.604 1.239V65c-3.486.42-4.872-.546-4.872-3.276v-5.04h-1.932V54.5h1.932v-2.268l2.268-.672v2.94h2.604v2.184ZM97.707 50.3c4.053 0 7.035 3.234 7.035 7.35 0 4.095-2.982 7.35-7.035 7.35h-5.775V50.3h5.775Zm0 12.39c2.793 0 4.704-2.142 4.704-5.04 0-2.919-1.911-5.04-4.704-5.04h-3.36v10.08h3.36Zm10.034-1.974c.357 1.638 1.68 2.478 3.36 2.478 1.26 0 2.205-.567 2.709-1.302l1.869 1.092c-.966 1.428-2.541 2.289-4.599 2.289-3.465 0-5.712-2.373-5.712-5.523 0-3.108 2.247-5.523 5.544-5.523 3.129 0 5.271 2.52 5.271 5.544 0 .315-.042.651-.084.945h-8.358Zm-.021-1.848h6.174c-.315-1.806-1.638-2.583-3.003-2.583-1.701 0-2.856 1.008-3.171 2.583Zm15.15-2.184h-2.604v5.04c0 1.344.882 1.323 2.604 1.239V65c-3.486.42-4.872-.546-4.872-3.276v-5.04h-1.932V54.5h1.932v-2.268l2.268-.672v2.94h2.604v2.184Zm9.102-2.184h2.268V65h-2.268v-1.512c-.798 1.113-2.037 1.785-3.675 1.785-2.856 0-5.229-2.415-5.229-5.523 0-3.129 2.373-5.523 5.229-5.523 1.638 0 2.877.672 3.675 1.764V54.5Zm-3.318 8.61c1.89 0 3.318-1.407 3.318-3.36 0-1.953-1.428-3.36-3.318-3.36-1.89 0-3.318 1.407-3.318 3.36 0 1.953 1.428 3.36 3.318 3.36Zm8.524-10.185a1.466 1.466 0 0 1-1.449-1.449c0-.798.651-1.449 1.449-1.449s1.449.651 1.449 1.449c0 .777-.651 1.449-1.449 1.449ZM136.044 65V54.5h2.268V65h-2.268Zm4.061 0V49.67h2.268V65h-2.268Zm6.037-7.602c0 1.911 5.649.756 5.649 4.641 0 2.1-1.827 3.234-4.095 3.234-2.1 0-3.612-.945-4.284-2.457l1.953-1.134c.336.945 1.176 1.512 2.331 1.512 1.008 0 1.785-.336 1.785-1.176 0-1.869-5.649-.819-5.649-4.578 0-1.974 1.701-3.213 3.843-3.213 1.722 0 3.15.798 3.885 2.184l-1.911 1.071c-.378-.819-1.113-1.197-1.974-1.197-.819 0-1.533.357-1.533 1.113Z" style="fill: color(display-p3 0.6941 0.7647 0.9882); fill-opacity: 1;"></path><path fill="#BFBEEC" d="M24.775 93.35h4.65V95H23.05V84.5h6.3v1.65h-4.575v2.73h4.2v1.635h-4.2v2.835Zm7.144-4.59c.45-1.02 1.365-1.395 2.31-1.395v1.755c-1.065-.075-2.31.42-2.31 2.1V95H30.3v-7.5h1.62v1.26Zm3.717-2.385c-.57 0-1.035-.48-1.035-1.035 0-.57.465-1.035 1.035-1.035.57 0 1.035.465 1.035 1.035 0 .555-.465 1.035-1.035 1.035ZM34.826 95v-7.5h1.62V95h-1.62Zm6.441.195c-2.265 0-3.96-1.725-3.96-3.945 0-2.235 1.695-3.945 3.96-3.945 1.47 0 2.745.765 3.345 1.935l-1.395.81c-.33-.705-1.065-1.155-1.965-1.155-1.32 0-2.325 1.005-2.325 2.355s1.005 2.355 2.325 2.355c.9 0 1.635-.465 1.995-1.155l1.395.795c-.63 1.185-1.905 1.95-3.375 1.95ZM54.737 84.5h1.725V95h-1.725v-4.545h-4.5V95h-1.725V84.5h1.725v4.305h4.5V84.5Zm6.659 10.695c-2.19 0-3.96-1.725-3.96-3.945 0-2.235 1.77-3.945 3.96-3.945 2.205 0 3.96 1.71 3.96 3.945 0 2.22-1.755 3.945-3.96 3.945Zm0-1.575c1.32 0 2.34-1.005 2.34-2.37 0-1.365-1.02-2.37-2.34-2.37-1.32 0-2.34 1.005-2.34 2.37 0 1.365 1.02 2.37 2.34 2.37Zm12.616-7.905c-1.14-.105-1.77.33-1.77 1.485v.3h1.77v1.56h-1.77V95h-1.62v-5.94h-2.505V95h-1.62v-5.94h-1.14V87.5h1.14v-.15c0-2.025 1.14-3.195 3.39-3.045v1.56c-1.14-.105-1.77.33-1.77 1.485v.15h2.505v-.3c0-2.025 1.14-3.195 3.39-3.045v1.56Zm8.53 1.59c1.694 0 2.834 1.17 2.834 3.045V95h-1.62v-4.545c0-1.05-.57-1.635-1.455-1.635-.96 0-1.635.615-1.635 1.98V95h-1.62v-4.545c0-1.05-.525-1.635-1.41-1.635-.915 0-1.665.615-1.665 1.98V95h-1.62v-7.5h1.62v.9c.48-.735 1.215-1.095 2.145-1.095.975 0 1.695.435 2.13 1.185.495-.78 1.29-1.185 2.295-1.185Zm9.908.195h1.62V95h-1.62v-1.08c-.57.795-1.455 1.275-2.625 1.275-2.04 0-3.735-1.725-3.735-3.945 0-2.235 1.695-3.945 3.735-3.945 1.17 0 2.055.48 2.625 1.26V87.5Zm-2.37 6.15c1.35 0 2.37-1.005 2.37-2.4s-1.02-2.4-2.37-2.4-2.37 1.005-2.37 2.4 1.02 2.4 2.37 2.4Zm9.223-6.345c1.68 0 2.88 1.14 2.88 3.09V95h-1.62v-4.44c0-1.14-.66-1.74-1.68-1.74-1.065 0-1.905.63-1.905 2.16V95h-1.62v-7.5h1.62v.96c.495-.78 1.305-1.155 2.325-1.155ZM22.18 107.6h5.34v1.2l-2.952 7.2h-1.452l2.904-7.08h-3.84v-1.32Zm8.018 2.82c1.74 0 2.964 1.176 2.964 2.868s-1.224 2.868-2.964 2.868c-1.752 0-2.976-1.176-2.976-2.868 0-.648.18-1.224.504-1.692l2.664-3.996h1.572l-1.92 2.82h.156Zm0 4.428c.912 0 1.584-.612 1.584-1.56 0-.96-.672-1.56-1.584-1.56-.924 0-1.596.6-1.596 1.56 0 .96.672 1.56 1.596 1.56Zm6.563 1.308c-2.112 0-3.3-1.764-3.3-4.356 0-2.592 1.188-4.356 3.3-4.356s3.3 1.764 3.3 4.356c0 2.592-1.188 4.356-3.3 4.356Zm0-1.344c1.248 0 1.92-1.08 1.92-3.012s-.672-3.012-1.92-3.012c-1.236 0-1.92 1.08-1.92 3.012s.684 3.012 1.92 3.012Zm10.055-1.608v1.284h-.96V116h-1.392v-1.512h-4.128v-1.284l2.892-5.604h1.5l-2.892 5.604h2.628v-2.184h1.392v2.184h.96Zm11.125-5.604v8.4h-1.38v-5.988l-2.556 4.224h-.168L51.28 110v6H49.9v-8.4h1.488l2.532 4.2 2.544-4.2h1.476Zm2.13 5.952c.205.936.96 1.416 1.92 1.416.72 0 1.26-.324 1.549-.744l1.068.624c-.552.816-1.452 1.308-2.628 1.308-1.98 0-3.264-1.356-3.264-3.156 0-1.776 1.284-3.156 3.168-3.156 1.788 0 3.012 1.44 3.012 3.168 0 .18-.024.372-.048.54h-4.776Zm-.011-1.056h3.528c-.18-1.032-.936-1.476-1.716-1.476-.972 0-1.632.576-1.812 1.476Zm6.426-.84c0 1.092 3.228.432 3.228 2.652 0 1.2-1.044 1.848-2.34 1.848-1.2 0-2.064-.54-2.448-1.404l1.116-.648c.192.54.672.864 1.332.864.576 0 1.02-.192 1.02-.672 0-1.068-3.228-.468-3.228-2.616 0-1.128.972-1.836 2.196-1.836.984 0 1.8.456 2.22 1.248l-1.092.612c-.216-.468-.636-.684-1.128-.684-.468 0-.876.204-.876.636ZM74.973 110h1.296v6h-1.296v-.864c-.456.636-1.164 1.02-2.1 1.02-1.632 0-2.988-1.38-2.988-3.156 0-1.788 1.356-3.156 2.988-3.156.936 0 1.644.384 2.1 1.008V110Zm-1.896 4.92c1.08 0 1.896-.804 1.896-1.92 0-1.116-.816-1.92-1.896-1.92s-1.896.804-1.896 1.92c0 1.116.816 1.92 1.896 1.92Zm8.962 1.08-2.916-8.4h1.512l2.232 6.732 2.244-6.732h1.5l-2.916 8.4H82.04Zm5.32-6.9a.838.838 0 0 1-.829-.828.83.83 0 0 1 .828-.828.83.83 0 0 1 .828.828.838.838 0 0 1-.828.828Zm-.649 6.9v-6h1.296v6H86.71Zm3.45-4.344c0 1.092 3.228.432 3.228 2.652 0 1.2-1.044 1.848-2.34 1.848-1.2 0-2.064-.54-2.448-1.404l1.116-.648c.192.54.672.864 1.332.864.576 0 1.02-.192 1.02-.672 0-1.068-3.228-.468-3.228-2.616 0-1.128.972-1.836 2.196-1.836.984 0 1.8.456 2.22 1.248l-1.092.612c-.216-.468-.636-.684-1.128-.684-.468 0-.876.204-.876.636Zm7-.408h-1.487v2.88c0 .768.504.756 1.488.708V116c-1.992.24-2.784-.312-2.784-1.872v-2.88h-1.104V110h1.104v-1.296l1.296-.384V110h1.488v1.248Zm5.202-1.248h1.296v6h-1.296v-.864c-.456.636-1.164 1.02-2.1 1.02-1.632 0-2.988-1.38-2.988-3.156 0-1.788 1.356-3.156 2.988-3.156.936 0 1.644.384 2.1 1.008V110Zm-1.896 4.92c1.08 0 1.896-.804 1.896-1.92 0-1.116-.816-1.92-1.896-1.92s-1.896.804-1.896 1.92c0 1.116.816 1.92 1.896 1.92Zm10.127-7.32c2.316 0 4.02 1.848 4.02 4.2 0 2.34-1.704 4.2-4.02 4.2h-3.3v-8.4h3.3Zm0 7.08c1.596 0 2.688-1.224 2.688-2.88 0-1.668-1.092-2.88-2.688-2.88h-1.92v5.76h1.92Zm6.01-3.672c.36-.816 1.092-1.116 1.848-1.116v1.404c-.852-.06-1.848.336-1.848 1.68V116h-1.296v-6h1.296v1.008Zm-90.967 16.148c-1.656 0-2.796-.816-3.24-2.064l1.188-.696c.3.852.948 1.416 2.088 1.416 1.092 0 1.56-.492 1.56-1.104 0-.744-.66-.996-1.908-1.38-1.308-.396-2.58-.876-2.58-2.46 0-1.548 1.284-2.424 2.7-2.424 1.38 0 2.4.732 2.928 1.848l-1.164.672c-.3-.672-.828-1.176-1.764-1.176-.804 0-1.32.408-1.32 1.044 0 .648.468.924 1.692 1.308 1.392.444 2.796.876 2.796 2.544 0 1.536-1.224 2.472-2.976 2.472ZM34.153 121h1.296v6h-1.296v-.864c-.456.636-1.164 1.02-2.1 1.02-1.632 0-2.988-1.38-2.988-3.156 0-1.788 1.356-3.156 2.988-3.156.936 0 1.644.384 2.1 1.008V121Zm-1.896 4.92c1.08 0 1.896-.804 1.896-1.92 0-1.116-.816-1.92-1.896-1.92s-1.896.804-1.896 1.92c0 1.116.816 1.92 1.896 1.92ZM36.48 127v-8.76h1.296V127H36.48Zm5.668-4.752H40.66v2.88c0 .768.504.756 1.488.708V127c-1.992.24-2.784-.312-2.784-1.872v-2.88H38.26V121h1.104v-1.296l1.296-.384V121h1.488v1.248Zm4.738 3.432h3.42V127h-4.8v-8.4h1.38v7.08Zm8.445-4.68h1.296v6h-1.296v-.864c-.456.636-1.164 1.02-2.1 1.02-1.632 0-2.988-1.38-2.988-3.156 0-1.788 1.356-3.156 2.988-3.156.936 0 1.644.384 2.1 1.008V121Zm-1.896 4.92c1.08 0 1.896-.804 1.896-1.92 0-1.116-.816-1.92-1.896-1.92s-1.896.804-1.896 1.92c0 1.116.816 1.92 1.896 1.92Zm9.527 1.08h-1.548l-2.46-2.772V127h-1.296v-8.4h1.296v5.052L61.282 121h1.584l-2.64 2.94 2.736 3.06Zm.931-2.448c.204.936.96 1.416 1.92 1.416.72 0 1.26-.324 1.548-.744l1.068.624c-.552.816-1.452 1.308-2.628 1.308-1.98 0-3.264-1.356-3.264-3.156 0-1.776 1.284-3.156 3.168-3.156 1.788 0 3.012 1.44 3.012 3.168 0 .18-.024.372-.048.54h-4.776Zm-.012-1.056h3.528c-.18-1.032-.936-1.476-1.716-1.476-.972 0-1.632.576-1.812 1.476Zm12.072 3.66c-2.556 0-4.392-1.92-4.392-4.356s1.836-4.356 4.392-4.356c1.536 0 2.904.78 3.612 2.004l-1.2.696c-.444-.828-1.356-1.356-2.412-1.356-1.812 0-3.012 1.284-3.012 3.012s1.2 3.012 3.012 3.012c1.056 0 1.98-.528 2.412-1.356l1.2.684c-.696 1.224-2.064 2.016-3.612 2.016Zm4.901-7.056a.838.838 0 0 1-.828-.828.83.83 0 0 1 .829-.828.83.83 0 0 1 .828.828.838.838 0 0 1-.829.828Zm-.647 6.9v-6h1.296v6h-1.296Zm5.668-4.752h-1.488v2.88c0 .768.504.756 1.488.708V127c-1.992.24-2.784-.312-2.784-1.872v-2.88h-1.104V121h1.104v-1.296l1.296-.384V121h1.488v1.248ZM90.732 121h1.38l-2.304 6.192c-.564 1.524-1.548 2.292-2.928 2.208v-1.212c.84.048 1.296-.384 1.596-1.176l.06-.12L85.992 121h1.416l1.788 4.356L90.732 121Zm7.41 6.156c-1.848 0-3.18-1.128-3.18-2.94V118.6h1.38v5.532c0 .984.564 1.68 1.8 1.68 1.236 0 1.8-.696 1.8-1.68V118.6h1.38v5.616c0 1.812-1.344 2.94-3.18 2.94Zm9.748-8.556v1.32h-2.364V127h-1.38v-7.08h-2.376v-1.32h6.12Zm7.296 4.032c.78.432 1.236 1.152 1.236 2.04 0 1.56-1.188 2.484-2.94 2.484s-2.952-.924-2.952-2.484c0-.876.468-1.608 1.236-2.04a2.056 2.056 0 0 1-.948-1.776c0-1.62 1.26-2.412 2.664-2.412 1.392 0 2.664.792 2.664 2.412 0 .804-.384 1.404-.96 1.776Zm-1.704-2.88c-.708 0-1.284.384-1.284 1.164 0 .744.576 1.164 1.284 1.164.696 0 1.284-.42 1.284-1.164 0-.78-.588-1.164-1.284-1.164Zm0 6.096c.9 0 1.56-.456 1.56-1.308 0-.864-.66-1.308-1.56-1.308-.912 0-1.572.444-1.572 1.308 0 .852.66 1.308 1.572 1.308Zm9.748-1.644v1.284h-.96V127h-1.392v-1.512h-4.128v-1.284l2.892-5.604h1.5l-2.892 5.604h2.628v-2.184h1.392v2.184h.96Zm3.505 2.952c-2.112 0-3.3-1.764-3.3-4.356 0-2.592 1.188-4.356 3.3-4.356s3.3 1.764 3.3 4.356c0 2.592-1.188 4.356-3.3 4.356Zm0-1.344c1.248 0 1.92-1.08 1.92-3.012s-.672-3.012-1.92-3.012c-1.236 0-1.92 1.08-1.92 3.012s.684 3.012 1.92 3.012Zm10.054-1.608v1.284h-.96V127h-1.392v-1.512h-4.128v-1.284l2.892-5.604h1.5l-2.892 5.604h2.628v-2.184h1.392v2.184h.96Zm3.025-2.436c1.524 0 2.856.936 2.856 2.688 0 1.764-1.392 2.7-2.94 2.7-1.272 0-2.412-.588-2.856-1.8l1.188-.684c.216.744.792 1.14 1.668 1.14.936 0 1.56-.516 1.56-1.356 0-.84-.624-1.344-1.536-1.344h-2.448l.324-4.512h4.68v1.296h-3.408l-.144 1.872h1.056Z" style="fill: color(display-p3 0.7505 0.747 0.9258); fill-opacity: 1;"></path><path fill="#A3A1F3" d="M26.411 173.643c-2.343 0-4.026-1.76-4.026-3.993 0-2.233 1.683-3.993 4.026-3.993 1.408 0 2.662.715 3.311 1.837l-1.1.638c-.407-.759-1.243-1.243-2.211-1.243-1.661 0-2.761 1.177-2.761 2.761s1.1 2.761 2.761 2.761c.968 0 1.815-.484 2.211-1.243l1.1.627c-.638 1.122-1.892 1.848-3.311 1.848Zm8.136 0a3.965 3.965 0 0 1-3.993-3.993 3.965 3.965 0 0 1 3.993-3.993 3.958 3.958 0 0 1 3.993 3.993 3.958 3.958 0 0 1-3.993 3.993Zm0-1.232c1.54 0 2.728-1.177 2.728-2.761s-1.188-2.761-2.728-2.761c-1.54 0-2.728 1.177-2.728 2.761s1.188 2.761 2.728 2.761Zm9.987-6.611H45.8v7.7h-.99l-3.63-5.225v5.225h-1.265v-7.7h.99l3.63 5.225V165.8Zm7.643 0h1.265v7.7h-.99l-3.63-5.225v5.225h-1.265v-7.7h.99l3.63 5.225V165.8Zm4.288 6.49h3.41v1.21H55.2v-7.7h4.62v1.21h-3.355v2.002h3.08v1.199h-3.08v2.079Zm8.364 1.353c-2.343 0-4.026-1.76-4.026-3.993 0-2.233 1.683-3.993 4.026-3.993 1.408 0 2.662.715 3.311 1.837l-1.1.638c-.407-.759-1.243-1.243-2.21-1.243-1.662 0-2.762 1.177-2.762 2.761s1.1 2.761 2.761 2.761c.968 0 1.815-.484 2.211-1.243l1.1.627c-.638 1.122-1.892 1.848-3.31 1.848Zm9.534-7.843v1.21h-2.167v6.49H70.93v-6.49h-2.178v-1.21h5.61Zm2.42 6.49h3.41v1.21h-4.675v-7.7h4.62v1.21h-3.355v2.002h3.08v1.199h-3.08v2.079Zm7.813-6.49c2.123 0 3.685 1.694 3.685 3.85 0 2.145-1.562 3.85-3.685 3.85h-3.025v-7.7h3.025Zm0 6.49c1.463 0 2.464-1.122 2.464-2.64 0-1.529-1.001-2.64-2.464-2.64h-1.76v5.28h1.76Zm11.053-6.49c2.123 0 3.685 1.694 3.685 3.85 0 2.145-1.562 3.85-3.685 3.85h-3.025v-7.7h3.025Zm0 6.49c1.463 0 2.464-1.122 2.464-2.64 0-1.529-1-2.64-2.464-2.64h-1.76v5.28h1.76Zm6.324 0h3.41v1.21h-4.675v-7.7h4.62v1.21h-3.355v2.002h3.08v1.199h-3.08v2.079Zm6.746 1.21-2.673-7.7h1.386l2.046 6.171 2.057-6.171h1.375l-2.673 7.7h-1.518Zm5.233-7.7h1.265v7.7h-1.265v-7.7Zm6.665 7.843c-2.343 0-4.026-1.76-4.026-3.993 0-2.233 1.683-3.993 4.026-3.993 1.408 0 2.662.715 3.311 1.837l-1.1.638c-.407-.759-1.243-1.243-2.211-1.243-1.661 0-2.761 1.177-2.761 2.761s1.1 2.761 2.761 2.761c.968 0 1.815-.484 2.211-1.243l1.1.627c-.638 1.122-1.892 1.848-3.311 1.848Zm5.847-1.353h3.41v1.21h-4.675v-7.7h4.62v1.21h-3.355v2.002h3.08v1.199h-3.08v2.079Zm7.351 1.353c-1.518 0-2.563-.748-2.97-1.892l1.089-.638c.275.781.869 1.298 1.914 1.298 1.001 0 1.43-.451 1.43-1.012 0-.682-.605-.913-1.749-1.265-1.199-.363-2.365-.803-2.365-2.255 0-1.419 1.177-2.222 2.475-2.222 1.265 0 2.2.671 2.684 1.694l-1.067.616c-.275-.616-.759-1.078-1.617-1.078-.737 0-1.21.374-1.21.957 0 .594.429.847 1.551 1.199 1.276.407 2.563.803 2.563 2.332 0 1.408-1.122 2.266-2.728 2.266Z" style="fill: color(display-p3 0.6373 0.6309 0.9511); fill-opacity: 1;"></path><rect width="24" height="25" x="299" y="157" fill="#3F3CCD" rx="4" style="fill: color(display-p3 0.247 0.2357 0.8028); fill-opacity: 1;"></rect><path fill="#CFCEF2" d="M311.342 168.618c1.248.299 2.223 1.209 2.223 2.626 0 1.911-1.508 2.925-3.185 2.925-1.339 0-2.548-.611-3.055-1.885l1.274-.741c.26.767.871 1.17 1.781 1.17 1.027 0 1.69-.559 1.69-1.469s-.663-1.456-1.69-1.456h-.338l-.598-.897 1.963-2.587h-3.809V164.9h5.59v1.274l-1.846 2.444Z" style="fill: color(display-p3 0.8118 0.8078 0.949); fill-opacity: 1;"></path></svg>