<svg xmlns="http://www.w3.org/2000/svg" width="80" height="80" fill="none" viewBox="0 0 80 80">
    <circle cx="40" cy="40" r="40" fill="color(display-p3 .3222 .3131 .7722)"/>
    <g filter="url(#a)">
      <circle cx="40" cy="40" r="35" fill="#fff"/>
    </g>
    <path stroke="color(display-p3 .3961 .3882 .8549)" stroke-linecap="round" stroke-linejoin="round" stroke-width="1.5" d="m36.171 41.624 2.906 2.906 6.539-6.538m-5.096-4.889c-2.905-3.396-7.75-4.31-11.39-1.2-3.64 3.11-4.151 8.31-1.293 11.989 2.159 2.778 8.292 8.355 11.165 10.918.528.471.792.707 1.1.8.27.08.567.08.836 0 .309-.093.573-.329 1.1-.8 2.873-2.563 9.007-8.14 11.166-10.919 2.858-3.678 2.408-8.91-1.294-11.987-3.703-3.078-8.485-2.197-11.39 1.2Z"/>
    <defs>
      <filter id="a" width="78" height="78" x="1" y="2" color-interpolation-filters="sRGB" filterUnits="userSpaceOnUse">
        <feFlood flood-opacity="0" result="BackgroundImageFix"/>
        <feColorMatrix in="SourceAlpha" result="hardAlpha" values="0 0 0 0 0 0 0 0 0 0 0 0 0 0 0 0 0 0 127 0"/>
        <feMorphology in="SourceAlpha" operator="dilate" radius="1" result="effect1_dropShadow_781_708"/>
        <feOffset/>
        <feComposite in2="hardAlpha" operator="out"/>
        <feColorMatrix values="0 0 0 0 0.232423 0 0 0 0 0.224231 0 0 0 0 0.699398 0 0 0 1 0"/>
        <feBlend in2="BackgroundImageFix" result="effect1_dropShadow_781_708"/>
        <feColorMatrix in="SourceAlpha" result="hardAlpha" values="0 0 0 0 0 0 0 0 0 0 0 0 0 0 0 0 0 0 127 0"/>
        <feOffset dy="1"/>
        <feGaussianBlur stdDeviation="2"/>
        <feComposite in2="hardAlpha" operator="out"/>
        <feColorMatrix values="0 0 0 0 0 0 0 0 0 0 0 0 0 0 0 0 0 0 0.45 0"/>
        <feBlend in2="effect1_dropShadow_781_708" result="effect2_dropShadow_781_708"/>
        <feBlend in="SourceGraphic" in2="effect2_dropShadow_781_708" result="shape"/>
        <feColorMatrix in="SourceAlpha" result="hardAlpha" values="0 0 0 0 0 0 0 0 0 0 0 0 0 0 0 0 0 0 127 0"/>
        <feOffset dy="-1"/>
        <feGaussianBlur stdDeviation="1.5"/>
        <feComposite in2="hardAlpha" k2="-1" k3="1" operator="arithmetic"/>
        <feColorMatrix values="0 0 0 0 0.69811 0 0 0 0 0.691732 0 0 0 0 1 0 0 0 1 0"/>
        <feBlend in2="shape" result="effect3_innerShadow_781_708"/>
      </filter>
    </defs>
  </svg>