<svg xmlns="http://www.w3.org/2000/svg" fill="none" viewBox="0 0 100 100"><path fill="#B1C3FC" d="M78.513 49.595c0-.007.003-.013.008-.018a.026.026 0 0 1 .019-.008l1.084.001a.026.026 0 0 0 .026-.026v-.72a.026.026 0 0 0-.026-.025H76.5a.026.026 0 0 0-.019.008.025.025 0 0 0-.007.018v.72c0 .006.003.013.007.018a.026.026 0 0 0 .019.007h1.085c.007 0 .013.003.018.008a.025.025 0 0 1 .008.018v3.115a.026.026 0 0 0 .026.026l.85-.002a.026.026 0 0 0 .026-.025v-3.115Zm-3.774-.795a.021.021 0 0 0-.015.005.02.02 0 0 0-.006.014l.002 2.616a.02.02 0 0 1-.015.02.022.022 0 0 1-.013 0 .022.022 0 0 1-.01-.01L73.04 48.81a.02.02 0 0 0-.017-.01H71.83a.02.02 0 0 0-.02.02v3.897a.02.02 0 0 0 .02.02h.862a.02.02 0 0 0 .021-.02l-.003-2.7a.02.02 0 0 1 .004-.013.022.022 0 0 1 .012-.008.02.02 0 0 1 .013.001.02.02 0 0 1 .01.01l1.699 2.72a.02.02 0 0 0 .007.007.02.02 0 0 0 .01.003h1.136a.02.02 0 0 0 .014-.006.02.02 0 0 0 .006-.014V48.82a.02.02 0 0 0-.006-.014.02.02 0 0 0-.014-.006h-.862Zm-8.748.016a.017.017 0 0 0-.005-.012.018.018 0 0 0-.012-.005h-.868a.017.017 0 0 0-.017.017v3.903a.017.017 0 0 0 .017.017h.868a.018.018 0 0 0 .012-.005.017.017 0 0 0 .005-.012v-3.903Zm-3.387 3.1a.023.023 0 0 1-.023-.022V48.82c0-.002 0-.005-.002-.008a.021.021 0 0 0-.005-.007.022.022 0 0 0-.016-.007h-.857a.023.023 0 0 0-.023.022v3.893c0 .006.003.011.007.016.004.004.01.006.016.006h2.496a.023.023 0 0 0 .016-.006.02.02 0 0 0 .005-.008.02.02 0 0 0 .001-.008v-.776l-.001-.008a.023.023 0 0 0-.021-.014h-1.593Zm-9.759-2.061L53.8 52.7a.049.049 0 0 0 .05.036h.62c.02 0 .035-.01.041-.03l.984-2.819c.032-.09.048-.087.048.008v2.8c0 .028.014.041.042.041h.827a.034.034 0 0 0 .024-.01.032.032 0 0 0 .01-.023v-3.871c0-.022-.012-.033-.034-.033h-1.285a.043.043 0 0 0-.024.008.04.04 0 0 0-.014.019l-.892 2.464c-.014.039-.028.039-.042 0l-.889-2.472c-.004-.012-.014-.019-.028-.019h-1.29c-.022 0-.033.011-.033.033v3.871c0 .022.01.033.033.033h.82c.022 0 .033-.01.033-.033v-2.84c0-.092.015-.095.044-.008Zm-26.458-1.034a.022.022 0 0 0-.007-.015.023.023 0 0 0-.016-.007h-.84a.023.023 0 0 0-.016.007.02.02 0 0 0-.005.007.02.02 0 0 0-.002.008v3.893c0 .003 0 .006.002.008a.023.023 0 0 0 .021.014h.84a.023.023 0 0 0 .016-.006.022.022 0 0 0 .007-.016V48.82Zm-4.699 2.245a.02.02 0 0 1 .02-.02h1.666a.02.02 0 0 1 .014.006.02.02 0 0 1 .006.014v1.65a.02.02 0 0 0 .02.02h.846a.02.02 0 0 0 .02-.02V48.82a.02.02 0 0 0-.006-.014.02.02 0 0 0-.014-.006h-.846a.02.02 0 0 0-.02.02v1.42a.02.02 0 0 1-.006.014.02.02 0 0 1-.015.006h-1.665a.02.02 0 0 1-.02-.02v-1.42a.02.02 0 0 0-.006-.014.02.02 0 0 0-.014-.006h-.846a.02.02 0 0 0-.014.006.02.02 0 0 0-.006.014v3.898c0 .005.002.01.006.013a.02.02 0 0 0 .014.006h.846a.02.02 0 0 0 .02-.02v-1.65Z" style="fill: color(display-p3 0.6941 0.7647 0.9882);"></path><path stroke="#969BA1" stroke-width="0.138" d="M81.99 45.798a.017.017 0 0 0-.005-.012.018.018 0 0 0-.012-.005H18.48a.018.018 0 0 0-.013.005.017.017 0 0 0-.005.012v9.939l.001.007a.017.017 0 0 0 .01.01h63.5c.004 0 .009-.001.012-.005a.018.018 0 0 0 .006-.012v-9.939Z" style="stroke: color(display-p3 0.5882 0.6078 0.6314);"></path><path fill="#B1C3FC" d="M44.18 49.523c.305-.061.692.041.898.28.022.025.046.026.072.005l.62-.497a.05.05 0 0 0 .017-.033.05.05 0 0 0-.01-.037c-.274-.327-.734-.51-1.154-.537-1.174-.076-2.114.517-2.32 1.673-.074.42-.032.832.128 1.235.309.781 1.064 1.2 1.905 1.223.652.018 1.165-.197 1.54-.643a.052.052 0 0 0 .012-.04.053.053 0 0 0-.022-.036l-.675-.493c-.032-.023-.058-.018-.08.015-.125.197-.366.329-.592.365-.922.147-1.454-.756-1.281-1.534.117-.529.431-.844.942-.946Z" style="fill: color(display-p3 0.6941 0.7647 0.9882);"></path><path fill="#B1C3FC" fill-rule="evenodd" d="M33.612 51.903a.022.022 0 0 0-.012-.003h-1.506a.02.02 0 0 0-.02.013l-.323.81a.02.02 0 0 1-.02.013h-.95a.022.022 0 0 1-.01-.002.02.02 0 0 1-.006-.007.02.02 0 0 1-.002-.019l1.715-3.896a.02.02 0 0 1 .019-.012h.723c.004 0 .008 0 .012.003a.02.02 0 0 1 .007.009l1.728 3.897a.02.02 0 0 1 .002.01.022.022 0 0 1-.004.009.02.02 0 0 1-.017.01l-.975-.002a.02.02 0 0 1-.019-.013l-.334-.811a.02.02 0 0 0-.008-.01Zm-.798-1.876-.442 1.105a.022.022 0 0 0 .02.03l.888-.001a.022.022 0 0 0 .019-.01.022.022 0 0 0 .002-.02l-.446-1.104a.022.022 0 0 0-.02-.014.022.022 0 0 0-.02.014Zm35.303 1.876a.02.02 0 0 0-.008.01l-.323.81a.022.022 0 0 1-.02.013h-.95c-.003 0-.007 0-.01-.002a.02.02 0 0 1-.008-.007.02.02 0 0 1-.002-.02l1.717-3.895a.022.022 0 0 1 .02-.012h.722a.022.022 0 0 1 .02.012L71 52.707a.022.022 0 0 1 .002.01.02.02 0 0 1-.003.01.02.02 0 0 1-.008.007.022.022 0 0 1-.01.002h-.972a.021.021 0 0 1-.012-.003.02.02 0 0 1-.008-.01l-.337-.81a.02.02 0 0 0-.008-.01.021.021 0 0 0-.012-.003H68.13a.022.022 0 0 0-.012.003Zm.732-1.88-.443 1.111a.021.021 0 0 0-.002.01.021.021 0 0 0 .011.016.022.022 0 0 0 .01.002l.891-.001a.022.022 0 0 0 .01-.003.02.02 0 0 0 .007-.007.02.02 0 0 0 .002-.019l-.447-1.109a.02.02 0 0 0-.02-.013.022.022 0 0 0-.011.003.021.021 0 0 0-.008.01Zm-32.155 1.88a.02.02 0 0 0-.008.01l-.323.81a.02.02 0 0 1-.02.013h-.95c-.004 0-.008 0-.01-.002a.02.02 0 0 1-.008-.006.02.02 0 0 1-.002-.019l1.716-3.898a.02.02 0 0 1 .008-.009.02.02 0 0 1 .011-.004l.724.001a.02.02 0 0 1 .012.004.021.021 0 0 1 .007.009l1.727 3.896a.02.02 0 0 1-.002.019.021.021 0 0 1-.017.01h-.973a.02.02 0 0 1-.012-.004.02.02 0 0 1-.007-.01l-.337-.811a.02.02 0 0 0-.02-.012h-1.505a.021.021 0 0 0-.011.003Zm.732-1.884-.444 1.116a.019.019 0 0 0 .002.018.02.02 0 0 0 .017.009l.892-.001a.02.02 0 0 0 .017-.009.02.02 0 0 0 .003-.009.02.02 0 0 0-.001-.01l-.448-1.114a.02.02 0 0 0-.03-.01.02.02 0 0 0-.008.01Zm22.352 1.131a4.93 4.93 0 0 1-1.163.054c-.03-.002-.047.013-.047.043v1.456a.032.032 0 0 1-.01.023.034.034 0 0 1-.023.01H57.7c-.022 0-.033-.01-.033-.033v-3.868c0-.024.012-.036.036-.036.559-.001 1.108 0 1.647.003.829.004 1.373.437 1.342 1.258-.021.57-.32.98-.913 1.09Zm-1.207-1.598a.019.019 0 0 0-.001.008l-.003.876a.02.02 0 0 0 .02.02l.596.002a.674.674 0 0 0 .406-.127.393.393 0 0 0 .169-.308v-.042a.35.35 0 0 0-.044-.167.45.45 0 0 0-.123-.143.608.608 0 0 0-.186-.095.73.73 0 0 0-.22-.034l-.595-.002a.02.02 0 0 0-.014.006.02.02 0 0 0-.005.006Zm-28.824 1.591c-.317.066-.71.087-1.18.06-.038-.002-.058.016-.058.053v1.447c0 .022-.01.033-.033.033h-.836c-.022 0-.033-.01-.033-.033v-3.868c0-.024.012-.037.037-.037l1.571.001c.873 0 1.47.404 1.412 1.314-.035.53-.325.914-.88 1.03Zm-1.23-1.598a.027.027 0 0 0-.008.02l-.002.863a.028.028 0 0 0 .028.027l.58.002a.688.688 0 0 0 .41-.127.393.393 0 0 0 .172-.31v-.041a.347.347 0 0 0-.044-.168.454.454 0 0 0-.125-.143.618.618 0 0 0-.188-.095.746.746 0 0 0-.223-.034l-.58-.002a.028.028 0 0 0-.02.008Z" clip-rule="evenodd" style="fill: color(display-p3 0.6941 0.7647 0.9882);"></path><path fill="#B1C3FC" d="M83.044 56.755a.02.02 0 0 1-.006.014.02.02 0 0 1-.014.006H17.429a.02.02 0 0 1-.02-.02v-11.99a.02.02 0 0 1 .02-.02h65.595a.02.02 0 0 1 .014.005.02.02 0 0 1 .006.014v11.991Zm-1.053-10.957a.017.017 0 0 0-.006-.012.018.018 0 0 0-.012-.005H18.48a.018.018 0 0 0-.013.005.017.017 0 0 0-.005.012v9.939l.001.007a.017.017 0 0 0 .01.01h63.5c.005 0 .009-.001.012-.005a.018.018 0 0 0 .006-.012v-9.939Z" style="fill: color(display-p3 0.6941 0.7647 0.9882);"></path><path fill="#B1C3FC" fill-rule="evenodd" d="M73.751 58.009H26.693a.05.05 0 0 0 .003.048.101.101 0 0 1 .013.05v5.592a.093.093 0 0 0 .048.082l23.44 13.279a.036.036 0 0 0 .036 0l23.444-13.282a.083.083 0 0 0 .044-.074v-5.59c0-.02.003-.04.01-.06l.02-.045ZM44.639 60.13a.72.72 0 0 1 .055.282l-.001.144a.726.726 0 0 1-.223.517.755.755 0 0 1-.53.211h-.184a.763.763 0 0 1-.528-.22.733.733 0 0 1-.215-.52l.001-.144a.727.727 0 0 1 .223-.517.756.756 0 0 1 .53-.211h.185a.76.76 0 0 1 .527.22c.069.068.123.15.16.238Zm-2.805.519-.073-.001c-.026 0-.04.013-.04.038v.554c0 .011-.005.017-.016.017h-.318a.017.017 0 0 1-.011-.005.016.016 0 0 1-.005-.012v-1.505c0-.024.011-.035.035-.036.22-.005.443-.002.669.01.295.013.51.207.485.503-.039.444-.392.44-.726.437Zm4.213-.946a.023.023 0 0 1 .014-.005h.304a.023.023 0 0 1 .021.016l.286.914a.034.034 0 0 0 .009.012.022.022 0 0 0 .014.004.023.023 0 0 0 .022-.018l.233-.91a.023.023 0 0 1 .022-.017h.324a.023.023 0 0 1 .022.018v.01l-.453 1.514a.023.023 0 0 1-.022.016h-.286a.023.023 0 0 1-.022-.017l-.31-.963a.022.022 0 0 0-.009-.012.024.024 0 0 0-.014-.004.024.024 0 0 0-.013.004.022.022 0 0 0-.008.012l-.313.963a.023.023 0 0 1-.009.012.023.023 0 0 1-.013.004h-.276a.023.023 0 0 1-.021-.015l-.459-1.515a.022.022 0 0 1 0-.01c0-.004.002-.007.004-.01a.022.022 0 0 1 .008-.007.022.022 0 0 1 .01-.002l.352.002a.022.022 0 0 1 .021.017l.221.878a.023.023 0 0 0 .022.018c.005 0 .01-.002.014-.005a.023.023 0 0 0 .008-.011l.289-.882a.022.022 0 0 1 .008-.011Zm2.117.936a.02.02 0 0 0-.006.015v.254a.02.02 0 0 0 .021.021h.712a.02.02 0 0 1 .02.02l-.001.288a.02.02 0 0 1-.02.02h-1.062a.02.02 0 0 1-.015-.006.02.02 0 0 1-.006-.014v-1.518a.02.02 0 0 1 .006-.014.02.02 0 0 1 .015-.006h1.028a.02.02 0 0 1 .015.006.02.02 0 0 1 .006.014v.287a.02.02 0 0 1-.005.014.021.021 0 0 1-.015.006h-.677l-.008.002a.024.024 0 0 0-.007.005.02.02 0 0 0-.005.006.02.02 0 0 0-.001.008l-.001.238c0 .006.002.01.006.015a.022.022 0 0 0 .014.006h.644a.02.02 0 0 1 .015.005.02.02 0 0 1 .006.015v.287a.02.02 0 0 1-.005.015.021.021 0 0 1-.015.005h-.644a.021.021 0 0 0-.015.006Zm1.819-.004-.085-.002a.032.032 0 0 0-.024.009.033.033 0 0 0-.01.024v.575c0 .01-.006.016-.017.016h-.318c-.011 0-.017-.005-.017-.017v-1.505c0-.024.013-.036.038-.036.047 0 .102-.002.162-.004.414-.014 1.062-.035 1.003.53-.02.196-.117.32-.289.371-.023.008-.029.022-.016.043l.366.6.002.007a.01.01 0 0 1-.003.007l-.001.001-.002.001a3.089 3.089 0 0 1-.423-.008.018.018 0 0 1-.013-.01l-.297-.567a.061.061 0 0 0-.056-.035Zm1.659.004a.02.02 0 0 0-.006.014v.256c0 .005.002.01.005.014a.02.02 0 0 0 .015.006h.712a.02.02 0 0 1 .015.006.02.02 0 0 1 .006.014l-.002.288a.02.02 0 0 1-.02.02h-1.062a.02.02 0 0 1-.015-.006.02.02 0 0 1-.005-.014v-1.519a.02.02 0 0 1 .005-.014.02.02 0 0 1 .015-.005h1.03a.02.02 0 0 1 .014.005.02.02 0 0 1 .006.014v.288a.02.02 0 0 1-.02.02l-.679.001a.02.02 0 0 0-.02.02l-.001.239c0 .005.002.01.006.014a.02.02 0 0 0 .014.006h.645a.02.02 0 0 1 .015.005.02.02 0 0 1 .005.014l.001.289a.02.02 0 0 1-.02.02h-.645a.02.02 0 0 0-.014.005Zm1.345.588.005-1.505.002-.009a.024.024 0 0 1 .023-.014l.609.002a.86.86 0 0 1 .58.221c.154.14.24.331.239.53v.056a.69.69 0 0 1-.064.286.749.749 0 0 1-.179.242.83.83 0 0 1-.267.162.89.89 0 0 1-.315.056l-.609-.003a.025.025 0 0 1-.017-.007.023.023 0 0 1-.007-.017Zm3.95-.801c-.03.014-.029.025.004.033a.32.32 0 0 1 .228.176c.153.353-.116.597-.454.613-.23.011-.468.014-.715.008-.023 0-.034-.012-.034-.035v-1.488c0-.022.011-.034.034-.034.207-.004.423-.002.648.005.214.006.466.096.49.334.018.183-.049.312-.201.388Zm1.7-.723a.025.025 0 0 1 .012-.003l.384-.003a.024.024 0 0 1 .02.012.022.022 0 0 1 .003.012.022.022 0 0 1-.004.012l-.57.856a.023.023 0 0 0-.004.012l-.007.633a.023.023 0 0 1-.007.015.023.023 0 0 1-.015.007l-.303.002c-.003 0-.006 0-.009-.002a.022.022 0 0 1-.013-.013.022.022 0 0 1-.001-.008l-.002-.62a.023.023 0 0 0-.004-.012l-.58-.87a.022.022 0 0 1-.004-.011.022.022 0 0 1 .012-.02.024.024 0 0 1 .011-.004l.4.001c.005 0 .008.001.012.003a.023.023 0 0 1 .008.009l.3.517a.023.023 0 0 0 .01.009.024.024 0 0 0 .023 0 .023.023 0 0 0 .009-.009l.311-.516a.024.024 0 0 1 .009-.009Zm-1.05 2.9v1.84c0 .032.011.036.033.014.383-.38.853-.478 1.409-.293.745.247 1.013 1.106.784 1.784-.181.536-.56.834-1.134.895-.428.045-.781-.081-1.06-.379-.022-.023-.032-.02-.032.013v.259c0 .033-.016.05-.05.05h-.41c-.038 0-.058-.02-.058-.058v-4.132a.01.01 0 0 1 .003-.007.01.01 0 0 1 .008-.003h.49c.012 0 .017.005.017.016Zm2.92-.012a.019.019 0 0 1 .006.014v4.161a.02.02 0 0 1-.006.014.02.02 0 0 1-.014.005h-.496a.02.02 0 0 1-.02-.019v-4.161a.02.02 0 0 1 .02-.02h.496a.02.02 0 0 1 .014.006ZM40.075 65.82a.022.022 0 0 0-.012-.003l-1.857.001a.02.02 0 0 0-.02.012l-.385.943a.02.02 0 0 1-.02.012h-.607a.017.017 0 0 1-.01-.003.02.02 0 0 1-.009-.026l1.75-3.895a.021.021 0 0 1 .007-.009.021.021 0 0 1 .011-.003h.48c.004 0 .008 0 .011.003a.02.02 0 0 1 .008.009l1.7 3.896a.019.019 0 0 1 .001.01.02.02 0 0 1-.01.016.021.021 0 0 1-.01.002h-.61a.02.02 0 0 1-.02-.012l-.39-.944a.02.02 0 0 0-.008-.009Zm13.264-1.233h-.405c-.028 0-.037.013-.026.04a.91.91 0 0 1 .08.36c.002.605.003 1.193.002 1.765 0 .022-.012.033-.034.033h-.454c-.023 0-.034-.01-.033-.033.01-.516.008-1.051-.006-1.605-.014-.529-.575-.736-.99-.485-.276.167-.348.494-.343.802.007.445.007.88.002 1.306 0 .01-.005.015-.015.015h-.501a.017.017 0 0 1-.012-.005.016.016 0 0 1-.005-.011v-2.56c0-.043.022-.065.067-.065h.41c.04 0 .059.02.059.058l-.002.238c0 .044.013.049.04.013.37-.478 1.177-.504 1.58-.084.023.024.034.02.035-.014l.001-.178c0-.022.011-.033.034-.033h.518c.022 0 .033-.01.033-.033v-.689c0-.01.006-.016.017-.016h.485a.017.017 0 0 1 .017.016v.69a.033.033 0 0 0 .033.032h.685c.012 0 .017.005.017.016v.41c0 .012-.005.017-.017.017h-.673c-.028 0-.042.013-.042.04-.011.43-.01.874.005 1.333.014.42.321.46.658.365.027-.008.039-.026.034-.054-.198-1.105 1.02-1.144 1.782-1.124.028 0 .043-.013.044-.041.019-.576-.583-.724-1.026-.537a1.39 1.39 0 0 0-.337.204.053.053 0 0 1-.072-.006l-.26-.28a.028.028 0 0 1-.004-.032.028.028 0 0 1 .008-.01c.396-.314.854-.427 1.375-.34.52.088.813.411.803.911-.011.55-.008 1.116.011 1.695.002.05-.023.074-.073.074h-.327c-.045 0-.067-.022-.067-.066l.001-.275c0-.04-.011-.044-.035-.011-.224.31-.564.447-1.02.413-.334-.025-.575-.153-.722-.384-.02-.03-.03-.028-.03.009v.251a.07.07 0 0 1-.013.042.074.074 0 0 1-.038.026c-.37.113-1.05.127-1.176-.371a1.608 1.608 0 0 1-.045-.402c.003-.498.004-.963.002-1.395 0-.023-.012-.035-.035-.035Zm-11.638.136c-.5.378-.44 1.32.163 1.573.356.149.675.088.957-.183.032-.031.065-.031.097 0l.287.281c.035.035.034.068-.003.1a1.443 1.443 0 0 1-1.194.343c-.726-.102-1.126-.515-1.198-1.24a1.38 1.38 0 0 1 .304-1.036c.48-.6 1.503-.635 2.069-.129.053.047.053.095 0 .142l-.261.234c-.05.044-.1.042-.145-.008-.268-.292-.776-.305-1.076-.077Zm3.25.092a.635.635 0 0 0-.294-.193c-.43-.131-.757-.032-.978.298-.247.368-.219.955.15 1.26a.84.84 0 0 0 1.16-.085c.021-.023.043-.024.066-.001l.315.31a.049.049 0 0 1 0 .069c-.466.473-1.334.495-1.862.13-.815-.567-.716-1.941.186-2.374.526-.252 1.235-.19 1.672.232.03.03.03.059-.002.087l-.301.273c-.04.036-.077.034-.113-.006Zm2.609-.334a1.365 1.365 0 0 1 0 1.968 1.46 1.46 0 0 1-1.015.408c-.38 0-.745-.147-1.014-.408a1.371 1.371 0 0 1-.42-.984c0-.37.15-.723.42-.984.269-.261.634-.408 1.014-.408s.746.147 1.015.408Zm15.675 1.172h-2.057c-.035 0-.05.017-.044.05a.76.76 0 0 0 .486.612c.446.19.83.066 1.118-.284.017-.02.035-.022.055-.006l.341.257c.02.015.022.032.006.052-.358.447-.943.59-1.504.486a1.275 1.275 0 0 1-1.017-.972c-.218-.916.379-1.781 1.36-1.77.92.01 1.367.703 1.29 1.545-.003.02-.014.03-.034.03Zm-13.338 1.074v-.256c0-.033-.01-.037-.032-.011-.298.355-.686.47-1.164.348-.418-.108-.64-.4-.664-.877a36.846 36.846 0 0 1-.008-1.772.015.015 0 0 1 .015-.016l.505.002c.009 0 .013.004.013.013l-.006 1.536a.81.81 0 0 0 .078.378c.232.434.866.364 1.106.008a.888.888 0 0 0 .152-.494c.007-.447.008-.921.003-1.423 0-.005.002-.01.006-.013a.02.02 0 0 1 .013-.006h.484c.005 0 .01.002.012.005a.016.016 0 0 1 .005.011v2.56c0 .043-.022.065-.067.065h-.393c-.04 0-.058-.02-.058-.058ZM62.18 68.66a.017.017 0 0 1 .005.012v.475a.017.017 0 0 1-.005.012.017.017 0 0 1-.013.005H38.262a.018.018 0 0 1-.013-.005.017.017 0 0 1-.005-.012v-.475c0-.005.002-.01.005-.012a.018.018 0 0 1 .013-.005h23.905c.005 0 .01.001.013.005Zm-11.442 3.204a.035.035 0 0 0 .02.006l1.594-.015c.007 0 .014.003.02.007a.034.034 0 0 1 .012.037.034.034 0 0 1-.012.017l-1.298.907a.034.034 0 0 0-.013.017.034.034 0 0 0 0 .02l.507 1.483a.033.033 0 0 1-.012.037.035.035 0 0 1-.04 0l-1.28-.93a.034.034 0 0 0-.04 0l-1.281.93a.035.035 0 0 1-.02.007.034.034 0 0 1-.032-.023.033.033 0 0 1 0-.021l.506-1.482a.033.033 0 0 0-.012-.038l-1.298-.907a.033.033 0 0 1-.013-.037.034.034 0 0 1 .033-.024l1.593.015a.034.034 0 0 0 .033-.023l.477-1.492a.033.033 0 0 1 .013-.017.035.035 0 0 1 .04 0c.007.004.01.01.013.017l.477 1.492a.033.033 0 0 0 .013.017ZM43.377 60.48a.481.481 0 0 0 .48.482.481.481 0 0 0 .475-.487.481.481 0 0 0-.48-.483.481.481 0 0 0-.475.488Zm-1.657-.448v.298c0 .007.002.013.007.017.005.004.01.007.017.007h.197a.3.3 0 0 0 .164-.045c.044-.028.068-.067.068-.107v-.041c0-.04-.024-.08-.068-.108a.304.304 0 0 0-.164-.044h-.197a.024.024 0 0 0-.017.007.023.023 0 0 0-.007.016Zm14.574-.09c0-.01.004-.018.01-.025a.034.034 0 0 1 .024-.01h.237a.34.34 0 0 1 .175.044c.046.029.072.067.072.108v.023c0 .02-.006.04-.018.058a.174.174 0 0 1-.054.05.291.291 0 0 1-.08.033.383.383 0 0 1-.095.012h-.237a.034.034 0 0 1-.024-.01.033.033 0 0 1-.01-.023v-.26Zm.04.71c0-.009.003-.017.01-.023a.034.034 0 0 1 .023-.01l.237-.001c.066 0 .129.016.175.044.046.029.072.067.072.107v.024c0 .02-.006.04-.018.058a.171.171 0 0 1-.054.05.29.29 0 0 1-.08.033.388.388 0 0 1-.095.012h-.237a.034.034 0 0 1-.024-.01.033.033 0 0 1-.01-.023v-.26Zm-2.994-.609a.02.02 0 0 0-.001.008l.003.86a.02.02 0 0 0 .006.014.02.02 0 0 0 .006.004.022.022 0 0 0 .008.002h.188a.618.618 0 0 0 .196-.033.536.536 0 0 0 .166-.09.422.422 0 0 0 .11-.136.348.348 0 0 0 .04-.159v-.07a.38.38 0 0 0-.152-.293.58.58 0 0 0-.363-.12h-.187a.021.021 0 0 0-.015.006.021.021 0 0 0-.005.007Zm-14.94 5.27.717-1.708a.02.02 0 0 1 .008-.01.02.02 0 0 1 .03.01l.71 1.711a.02.02 0 0 1 .002.01.02.02 0 0 1-.01.015.02.02 0 0 1-.01.002l-1.428-.003a.02.02 0 0 1-.017-.008.019.019 0 0 1-.003-.01l.001-.009Zm22.757-.068a.011.011 0 0 0 .008.003l1.554-.01a.011.011 0 0 0 .011-.012v-.006a.692.692 0 0 0-.06-.28.73.73 0 0 0-.172-.236.784.784 0 0 0-.254-.157.825.825 0 0 0-.299-.054h-.017a.806.806 0 0 0-.55.218.709.709 0 0 0-.224.52v.006c0 .003 0 .006.003.008Zm-15.493.221c0 .506.396.915.883.914.487-.001.88-.411.88-.917-.001-.505-.397-.914-.883-.913-.487.001-.881.411-.88.916Zm12.797.914c-.487 0-.882-.408-.883-.914 0-.505.393-.915.88-.916.486 0 .882.408.883.913 0 .506-.393.916-.88.917Zm-3.117.003c.376.134.84.028 1-.362.058-.14.082-.295.073-.465-.001-.021-.013-.032-.035-.033-.356-.013-1.469-.023-1.264.646a.351.351 0 0 0 .226.214ZM46.928 51.99c-.356-.499-.438-1.183-.298-1.778.271-1.157 1.383-1.644 2.505-1.49 1.24.172 1.879 1.158 1.749 2.359-.092.843-.675 1.468-1.505 1.678-.891.225-1.904-.006-2.45-.77Zm1.8.043a1.258 1.258 0 0 1-1.24-1.275c.003-.7.565-1.265 1.254-1.261a1.258 1.258 0 0 1 1.24 1.274 1.258 1.258 0 0 1-1.254 1.262ZM26.69 43.747h47.06l-.017-6.783a.08.08 0 0 0-.04-.067L50.238 23.609a.021.021 0 0 0-.023 0L26.752 36.901a.058.058 0 0 0-.031.054v6.69c0 .02-.004.04-.013.059l-.018.043Zm24.52-13.57c.008.007.02.01.031.01l3.036-.028a.05.05 0 0 1 .032.01.052.052 0 0 1 .02.06.053.053 0 0 1-.02.025l-2.473 1.728a.053.053 0 0 0-.02.027.051.051 0 0 0 0 .033l.965 2.824a.052.052 0 0 1-.019.059.054.054 0 0 1-.063 0l-2.439-1.774a.054.054 0 0 0-.064 0l-2.439 1.774a.055.055 0 0 1-.063 0 .052.052 0 0 1-.02-.059l.966-2.824a.051.051 0 0 0 0-.033.053.053 0 0 0-.02-.027l-2.473-1.728a.053.053 0 0 1-.02-.059c.003-.01.01-.02.02-.027a.058.058 0 0 1 .032-.01l3.036.03a.054.054 0 0 0 .051-.037l.911-2.842c.004-.01.01-.02.02-.026a.054.054 0 0 1 .062 0c.01.006.016.015.02.026l.91 2.842c.004.01.01.02.02.026Zm-7.691 1.64a.04.04 0 0 0 .024.007l1.977-.02a.04.04 0 0 1 .04.027.04.04 0 0 1-.016.045L43.933 33a.039.039 0 0 0-.015.045l.63 1.838a.04.04 0 0 1-.015.045.04.04 0 0 1-.047 0l-1.588-1.157a.04.04 0 0 0-.048 0l-1.588 1.156a.04.04 0 0 1-.047 0 .04.04 0 0 1-.015-.044l.63-1.839a.04.04 0 0 0 0-.025.04.04 0 0 0-.015-.02l-1.611-1.124a.039.039 0 0 1 0-.065.04.04 0 0 1 .024-.007l1.977.02a.04.04 0 0 0 .039-.028l.592-1.851a.04.04 0 0 1 .062-.02.039.039 0 0 1 .014.02l.592 1.851a.04.04 0 0 0 .015.02Zm14.707 0a.041.041 0 0 0 .025.007l1.974-.02c.01 0 .018.003.025.008a.04.04 0 0 1 .015.045.04.04 0 0 1-.016.02L58.64 33a.04.04 0 0 0-.014.02.039.039 0 0 0 0 .025l.63 1.837a.04.04 0 0 1-.016.045.041.041 0 0 1-.047 0l-1.587-1.155a.04.04 0 0 0-.048 0l-1.586 1.155a.04.04 0 0 1-.048 0 .04.04 0 0 1-.015-.045l.63-1.837a.04.04 0 0 0 0-.025.04.04 0 0 0-.015-.02l-1.61-1.123a.04.04 0 0 1-.015-.045.04.04 0 0 1 .04-.028l1.974.02a.041.041 0 0 0 .04-.028l.59-1.849a.04.04 0 0 1 .04-.027c.008 0 .016.002.023.007a.04.04 0 0 1 .015.02l.591 1.849a.04.04 0 0 0 .015.02Zm10.218 4.881a.018.018 0 0 1 .005.014v.47c0 .005-.002.01-.005.013a.02.02 0 0 1-.014.006H32.023a.019.019 0 0 1-.02-.02v-.47c0-.004.003-.01.007-.013a.02.02 0 0 1 .013-.005H68.43a.02.02 0 0 1 .014.005ZM30.9 39.953c-.193-.152-.62-.186-.65.139a.066.066 0 0 0 .015.049.51.51 0 0 0 .266.158c.305.078.67.175.74.52.089.428-.143.776-.575.865-.396.082-.738.008-1.026-.221-.025-.02-.027-.042-.005-.065l.311-.332a.042.042 0 0 1 .05-.01l.014.01a.52.52 0 0 0 .503.168c.295-.053.3-.337.021-.434a62.874 62.874 0 0 1-.433-.15c-.36-.124-.502-.457-.369-.798.218-.557 1.043-.6 1.479-.288.039.027.042.059.01.094l-.264.289c-.027.029-.056.03-.086.006Zm11.591.089c.054.128.08.265.08.404l-.001.205a1.038 1.038 0 0 1-.32.744 1.077 1.077 0 0 1-.761.305l-.277-.001a1.094 1.094 0 0 1-.759-.313 1.053 1.053 0 0 1-.31-.748v-.205a1.038 1.038 0 0 1 .32-.744 1.079 1.079 0 0 1 .761-.305l.277.001a1.094 1.094 0 0 1 .759.313c.1.099.178.215.231.344Zm5.123-.186c-.644.145-.685 1.085-.121 1.34a.54.54 0 0 0 .505-.016c.047-.025.083-.062.12-.099.017-.017.033-.034.052-.05.018-.017.038-.017.058-.002l.358.264c.023.017.026.037.009.06a.708.708 0 0 1-.314.254c-.741.3-1.583-.042-1.703-.878-.106-.743.37-1.316 1.136-1.355.352-.018.632.09.84.326a.02.02 0 0 1 .004.004v.007l-.001.007a.015.015 0 0 1-.004.005l-.365.289c-.013.01-.025.01-.037-.002a.543.543 0 0 0-.537-.154Zm3.574-.163c.202.198.314.467.314.747v.208c0 .28-.115.548-.317.746a1.087 1.087 0 0 1-.762.308h-.266a1.08 1.08 0 0 1-.76-.311 1.046 1.046 0 0 1-.315-.747v-.208c.001-.28.115-.549.317-.746.203-.198.477-.309.762-.308h.266c.286 0 .56.112.761.31Zm16.004.47c-.2.346-.092.847.28 1.027a.548.548 0 0 0 .539-.019.54.54 0 0 0 .119-.105l.03-.032c.02-.02.04-.022.064-.005l.362.268a.041.041 0 0 1 .015.045.046.046 0 0 1-.007.015c-.385.468-1.142.449-1.596.119-.585-.426-.599-1.458.024-1.88.448-.303 1.136-.335 1.528.105.007.008.006.015-.002.022l-.365.289c-.013.01-.026.01-.037-.002-.29-.295-.759-.185-.954.154Zm-34.696-.265a.022.022 0 0 0-.007.016l-.001.349a.02.02 0 0 0 .007.016c.004.004.01.006.016.006h.941c.006 0 .012.003.016.007a.02.02 0 0 1 .007.016v.43a.022.022 0 0 1-.007.017.023.023 0 0 1-.016.006h-.94a.022.022 0 0 0-.023.022l-.001.382c0 .003 0 .006.002.009a.023.023 0 0 0 .021.014h1.058a.023.023 0 0 1 .023.022v.431a.022.022 0 0 1-.007.016.023.023 0 0 1-.016.006h-1.56a.023.023 0 0 1-.015-.006.022.022 0 0 1-.007-.016v-2.186c0-.006.003-.012.007-.016a.023.023 0 0 1 .016-.007h1.492c.006 0 .012.003.017.007.004.004.006.01.006.016v.414a.022.022 0 0 1-.023.023h-.99a.023.023 0 0 0-.016.006Zm2.312 1.294a.024.024 0 0 0-.009.01l-.176.446a.024.024 0 0 1-.023.015h-.52a.024.024 0 0 1-.011-.003.024.024 0 0 1-.013-.018c0-.004 0-.008.002-.012l.962-2.183a.024.024 0 0 1 .022-.014h.398c.005 0 .01.001.014.004a.024.024 0 0 1 .008.01l.97 2.184a.023.023 0 0 1-.002.022.024.024 0 0 1-.02.01h-.536a.024.024 0 0 1-.022-.015l-.18-.445a.023.023 0 0 0-.009-.011.024.024 0 0 0-.013-.004h-.828a.024.024 0 0 0-.014.004Zm2.702-.01c.004.003.01.006.015.006h.878a.02.02 0 0 1 .02.02v.435a.02.02 0 0 1-.02.02h-1.396a.021.021 0 0 1-.015-.006.02.02 0 0 1-.006-.014v-2.191a.02.02 0 0 1 .006-.014.021.021 0 0 1 .015-.006h.476a.02.02 0 0 1 .021.02v1.715c0 .006.002.01.006.015Zm6.253-.382a.02.02 0 0 0-.006.014v.83a.02.02 0 0 1-.02.02h-.478a.02.02 0 0 1-.015-.007.02.02 0 0 1-.006-.013v-2.192a.02.02 0 0 1 .006-.014.02.02 0 0 1 .014-.006h1.482a.02.02 0 0 1 .014.006.02.02 0 0 1 .006.014v.42a.02.02 0 0 1-.006.014.02.02 0 0 1-.014.006h-.963a.02.02 0 0 0-.02.02v.403a.02.02 0 0 0 .02.02h.896a.02.02 0 0 1 .02.02v.42a.02.02 0 0 1-.02.02h-.896a.02.02 0 0 0-.014.005Zm9.453.827-.492-1.468c-.037-.111-.056-.108-.056.009l-.001 1.479c0 .01-.006.016-.016.016h-.485c-.011 0-.017-.005-.017-.016v-2.182c0-.022.011-.033.034-.033h.704c.01 0 .021.004.03.01a.051.051 0 0 1 .019.024l.476 1.326c.016.044.032.044.048 0l.482-1.333a.04.04 0 0 1 .038-.027h.71c.023 0 .034.011.034.033v2.182c0 .01-.006.016-.017.016h-.485c-.01 0-.017-.005-.017-.016V40.15c0-.108-.018-.11-.053-.009l-.519 1.49c-.008.021-.023.032-.047.032h-.32a.049.049 0 0 1-.05-.036Zm2.86-.834-.033-.001c-.032-.001-.049.014-.049.047v.808c0 .01-.005.016-.016.016h-.485a.017.017 0 0 1-.012-.005.016.016 0 0 1-.005-.011v-2.168c0-.033.017-.05.05-.05.466-.003.79.001.97.013.52.033.746.31.679.83-.071.547-.678.532-1.099.52Zm2.265.389a.02.02 0 0 0 .015.006h.878c.005 0 .01.002.014.005a.02.02 0 0 1 .006.015v.435a.02.02 0 0 1-.006.014.021.021 0 0 1-.014.006h-1.397l-.007-.001a.02.02 0 0 1-.007-.005.02.02 0 0 1-.006-.014v-2.19a.02.02 0 0 1 .006-.015.021.021 0 0 1 .014-.006h.477c.006 0 .01.002.015.006a.02.02 0 0 1 .006.015v1.714c0 .006.002.01.006.015Zm2-1.732v2.193a.02.02 0 0 1 0 .007.021.021 0 0 1-.02.013h-.477l-.008-.001a.02.02 0 0 1-.007-.005.02.02 0 0 1-.006-.012v-2.192a.02.02 0 0 1 .006-.015.021.021 0 0 1 .015-.006h.476a.021.021 0 0 1 .016.006.021.021 0 0 1 .005.012Zm1.273 1.742a.025.025 0 0 0-.01.012l-.176.442a.026.026 0 0 1-.01.012.027.027 0 0 1-.014.005h-.523a.025.025 0 0 1-.018-.022c0-.005 0-.01.002-.013l.96-2.18a.026.026 0 0 1 .01-.011.027.027 0 0 1 .015-.005h.395c.005 0 .01.002.014.004a.026.026 0 0 1 .01.011l.966 2.18a.025.025 0 0 1-.011.033.027.027 0 0 1-.013.003h-.53a.026.026 0 0 1-.024-.016l-.177-.442a.025.025 0 0 0-.01-.012.027.027 0 0 0-.015-.005h-.826a.026.026 0 0 0-.015.004Zm2.657.47a.03.03 0 0 1-.005.001h-.476a.024.024 0 0 1-.008-.001.022.022 0 0 1-.012-.012.02.02 0 0 1-.002-.008v-2.19a.02.02 0 0 1 .007-.014.022.022 0 0 1 .015-.006l.662.001h.006a.021.021 0 0 1 .012.009l.9 1.448a.021.021 0 0 0 .017.01.021.021 0 0 0 .022-.022l-.004-1.425c0-.003 0-.005.002-.008a.02.02 0 0 1 .005-.007.021.021 0 0 1 .015-.006h.476a.021.021 0 0 1 .018.01.02.02 0 0 1 .004.011v2.19c0 .002 0 .005-.002.007a.021.021 0 0 1-.02.013h-.633a.02.02 0 0 1-.01-.002.02.02 0 0 1-.008-.008l-.928-1.49a.02.02 0 0 0-.01-.01.021.021 0 0 0-.026.007.02.02 0 0 0-.004.013l.004 1.47a.02.02 0 0 1-.002.007.021.021 0 0 1-.015.013Zm5.45-.882-.001.003v.382c0 .003 0 .006.002.009a.023.023 0 0 0 .012.012.023.023 0 0 0 .009.002h1.04a.023.023 0 0 1 .024.022v.431a.022.022 0 0 1-.007.016.023.023 0 0 1-.016.006h-1.56a.023.023 0 0 1-.016-.006.022.022 0 0 1-.006-.016v-2.186c0-.006.002-.012.006-.016a.023.023 0 0 1 .016-.007h1.51c.006 0 .012.003.016.007s.006.01.006.016v.414a.022.022 0 0 1-.022.023h-.991a.023.023 0 0 0-.021.013.023.023 0 0 0-.002.009v.349c0 .003 0 .006.002.009l.001.003a.021.021 0 0 0 .01.009.021.021 0 0 0 .01.001h.924c.006 0 .012.003.016.007s.007.01.007.016v.43a.022.022 0 0 1-.007.017.023.023 0 0 1-.016.006h-.924c-.003 0-.006 0-.009.002a.021.021 0 0 0-.007.005.024.024 0 0 0-.005.007.027.027 0 0 0-.002.005Zm-27.871.266a.692.692 0 0 1-.987 0 .716.716 0 0 1 .226-1.158.688.688 0 0 1 .761.154.716.716 0 0 1 0 1.004Zm20.16-.882-.224.567a.021.021 0 0 0-.002.01c0 .004.002.008.004.01a.023.023 0 0 0 .019.01l.455-.002a.022.022 0 0 0 .02-.03l-.229-.565a.022.022 0 0 0-.008-.01.023.023 0 0 0-.026 0 .023.023 0 0 0-.008.01Zm-27.03.57.227-.577a.02.02 0 0 1 .019-.013.021.021 0 0 1 .02.013l.232.574a.02.02 0 0 1-.01.026.02.02 0 0 1-.01.002l-.459.002c-.003 0-.006 0-.01-.002a.022.022 0 0 1-.007-.006.02.02 0 0 1-.002-.02Zm21.023-.868a.033.033 0 0 0-.01.023l-.001.444c0 .009.003.017.01.023.006.006.014.01.023.01h.286a.456.456 0 0 0 .128-.017.367.367 0 0 0 .11-.052.254.254 0 0 0 .072-.077.182.182 0 0 0 .026-.092v-.031c0-.064-.035-.125-.098-.17a.413.413 0 0 0-.237-.07h-.286a.034.034 0 0 0-.023.009Zm-6.41.682c.002.393.316.71.701.707a.704.704 0 0 0 .694-.714.704.704 0 0 0-.701-.707.704.704 0 0 0-.694.714Z" clip-rule="evenodd" style="fill: color(display-p3 0.6941 0.7647 0.9882);"></path><path fill="#B1C3FC" fill-rule="evenodd" d="m22.685 34.61 27.53-15.595a.021.021 0 0 1 .011-.003.02.02 0 0 1 .011.003l27.53 15.596a.023.023 0 0 1 .008.008.021.021 0 0 1 .003.01v9.096a.022.022 0 0 0 .022.022h1.377a.022.022 0 0 0 .015-.007.021.021 0 0 0 .007-.015v-9.894a.017.017 0 0 0-.003-.01.021.021 0 0 0-.008-.009l-28.95-16.4a.023.023 0 0 0-.023 0l-28.95 16.4a.02.02 0 0 0-.009.008.02.02 0 0 0-.002.011v9.894a.022.022 0 0 0 .022.022h1.377a.022.022 0 0 0 .015-.007.021.021 0 0 0 .007-.015V34.63c0-.004 0-.008.002-.011a.023.023 0 0 1 .008-.008Zm27.53 46.827-27.53-15.595a.023.023 0 0 1-.008-.008.022.022 0 0 1-.002-.011V57.81a.021.021 0 0 0-.007-.015.022.022 0 0 0-.015-.006h-1.377a.022.022 0 0 0-.022.022v8.81a.021.021 0 0 0 .01.02l28.95 16.4a.021.021 0 0 0 .012.003.022.022 0 0 0 .011-.003l28.95-16.4a.023.023 0 0 0 .009-.009.022.022 0 0 0 .003-.01V57.81a.021.021 0 0 0-.007-.015.022.022 0 0 0-.015-.006H77.8a.022.022 0 0 0-.022.022v8.012a.022.022 0 0 1-.011.019l-27.53 15.595a.023.023 0 0 1-.022 0Z" clip-rule="evenodd" style="fill: color(display-p3 0.6941 0.7647 0.9882);"></path></svg>